<svg xmlns="http://www.w3.org/2000/svg"><symbol fill="none" id="sprite-favorite" viewBox="0 0 32 28"><title>favorite</title><path d="M23.5 0c-1.736 0-3.328.545-4.732 1.621-1.345 1.031-2.24 2.345-2.768 3.3-.527-.955-1.423-2.269-2.768-3.3C11.828.545 10.236 0 8.5 0 3.654 0 0 3.928 0 9.138c0 5.628 4.559 9.479 11.46 15.308 1.173.99 2.501 2.112 3.882 3.31a1.004 1.004 0 001.316 0c1.381-1.198 2.71-2.32 3.882-3.31C27.441 18.616 32 14.766 32 9.138 32 3.928 28.346 0 23.5 0z" fill="#00CC52"/></symbol></svg>