<svg xmlns="http://www.w3.org/2000/svg"><symbol fill="none" id="sprite-basket" viewBox="0 0 36 33"><title>basket</title><path d="M35.68 8.677a1.794 1.794 0 00-.645-.563 1.818 1.818 0 00-.835-.203H9.6L7.521 2.987a3.555 3.555 0 00-1.325-1.592A3.621 3.621 0 004.2.8H0v3.556h4.2l8.539 20.24c.136.323.367.6.663.795.295.194.643.298.998.298h14.4c.75 0 1.422-.46 1.687-1.152l5.4-14.222a1.757 1.757 0 00-.207-1.638zM15.3 32.8c1.491 0 2.7-1.194 2.7-2.666 0-1.473-1.209-2.667-2.7-2.667s-2.7 1.194-2.7 2.667c0 1.472 1.209 2.666 2.7 2.666zm12.6 0c1.491 0 2.7-1.194 2.7-2.666 0-1.473-1.209-2.667-2.7-2.667s-2.7 1.194-2.7 2.667c0 1.472 1.209 2.666 2.7 2.666z" fill="#00CC52"/></symbol><symbol fill="none" id="sprite-collections-block-more" viewBox="0 0 22 22"><title>collections-block-more</title><path d="M18.333 9.167v-2.75A1.839 1.839 0 0016.5 4.583h-11a1.839 1.839 0 00-1.833 1.834v2.75A1.839 1.839 0 001.833 11v4.583h1.22l.614 1.834h.916l.614-1.834h11.615l.605 1.834h.916l.615-1.834h1.219V11a1.839 1.839 0 00-1.834-1.833zm-8.25 0H5.5v-2.75h4.583v2.75zm6.417 0h-4.583v-2.75H16.5v2.75z" fill="#00CC52"/></symbol><symbol fill="none" id="sprite-favorite" viewBox="0 0 32 28"><title>favorite</title><path d="M23.5 0c-1.736 0-3.328.545-4.732 1.621-1.345 1.031-2.24 2.345-2.768 3.3-.527-.955-1.423-2.269-2.768-3.3C11.828.545 10.236 0 8.5 0 3.654 0 0 3.928 0 9.138c0 5.628 4.559 9.479 11.46 15.308 1.173.99 2.501 2.112 3.882 3.31a1.004 1.004 0 001.316 0c1.381-1.198 2.71-2.32 3.882-3.31C27.441 18.616 32 14.766 32 9.138 32 3.928 28.346 0 23.5 0z" fill="#00CC52"/></symbol><symbol fill="none" id="sprite-logo" viewBox="0 0 289 41"><title>logo</title><path d="M120.902 9.265v23.206h-6.365V29.82a7.294 7.294 0 01-2.851 2.32c-1.149.531-2.442.796-3.879.796-2.74 0-4.873-.873-6.398-2.619-1.525-1.768-2.287-4.276-2.287-7.525V9.265h6.564v13.327c0 1.636.364 2.862 1.094 3.68.751.818 1.768 1.227 3.049 1.227 1.349 0 2.432-.442 3.249-1.326.84-.884 1.26-2.188 1.26-3.912V9.265h6.564zm4.443 5.238h6.265v6.664h6.465v-6.664h6.298v17.968h-6.298v-6.298h-6.465v6.298h-6.265V14.503zm46.681-.298c2.21 0 3.967.663 5.271 1.989 1.326 1.326 1.989 3.326 1.989 6v10.277h-6.298v-9.249c0-1.26-.243-2.188-.73-2.785-.464-.596-1.127-.895-1.989-.895-.95 0-1.712.332-2.287.995s-.862 1.668-.862 3.017v8.917h-6.299v-9.249c0-2.453-.906-3.68-2.718-3.68-.973 0-1.746.332-2.321.995-.574.663-.862 1.668-.862 3.017v8.917h-6.298V14.503h6v1.89a6.18 6.18 0 012.354-1.625 7.977 7.977 0 013.016-.563c1.26 0 2.387.232 3.382.696a5.749 5.749 0 012.42 2.122 6.964 6.964 0 012.685-2.089c1.083-.486 2.265-.73 3.547-.73zm20.588 13.758c.862 0 1.603-.122 2.222-.365.64-.243 1.281-.64 1.922-1.194l3.282 3.448c-1.701 1.945-4.243 2.918-7.624 2.918-2.1 0-3.945-.398-5.537-1.194-1.591-.796-2.829-1.9-3.713-3.315-.862-1.414-1.293-3.017-1.293-4.807 0-1.768.431-3.348 1.293-4.74.862-1.415 2.045-2.52 3.548-3.316 1.525-.795 3.226-1.193 5.105-1.193 1.746 0 3.337.365 4.774 1.094a8.252 8.252 0 013.48 3.15c.862 1.37 1.293 3.005 1.293 4.906l-12.829 2.453c.685 1.436 2.044 2.155 4.077 2.155zm-.762-9.283c-1.083 0-1.967.343-2.652 1.028-.685.663-1.072 1.624-1.16 2.884l7.293-1.425a3.266 3.266 0 00-1.26-1.79c-.619-.465-1.359-.697-2.221-.697zm22.132-4.475c1.967 0 3.679.376 5.138 1.127 1.459.752 2.575 1.834 3.348 3.249.796 1.392 1.194 3.028 1.194 4.906 0 1.857-.365 3.492-1.094 4.907-.73 1.392-1.757 2.475-3.083 3.248-1.326.752-2.862 1.128-4.608 1.128-2.056 0-3.669-.63-4.84-1.89v8.023h-6.299v-15.35c0-1.856.42-3.491 1.26-4.906.84-1.414 2.033-2.508 3.58-3.282 1.547-.773 3.348-1.16 5.404-1.16zm-.299 13.559c1.127 0 2.034-.387 2.719-1.16.707-.796 1.061-1.835 1.061-3.117s-.354-2.31-1.061-3.083c-.685-.795-1.592-1.193-2.719-1.193-1.127 0-2.033.398-2.718 1.193-.685.774-1.028 1.801-1.028 3.083 0 1.304.332 2.343.995 3.117.685.773 1.602 1.16 2.751 1.16zm21.742 5.238c-6.056 0-9.084-2.553-9.084-7.658v-10.84h6.266v5.701c.486-.31 1.138-.563 1.956-.762.84-.2 1.79-.299 2.851-.299 2.254 0 4.022.564 5.304 1.691 1.304 1.105 1.956 2.752 1.956 4.94 0 2.365-.829 4.166-2.486 5.403-1.636 1.216-3.89 1.824-6.763 1.824zm-.033-4.31c.928 0 1.635-.243 2.121-.73.486-.508.73-1.193.73-2.055 0-.84-.244-1.48-.73-1.922-.464-.465-1.138-.697-2.022-.697-.641 0-1.216.11-1.724.332-.486.22-.873.52-1.16.895v1.392c0 .884.232 1.57.696 2.056.486.486 1.182.729 2.089.729zm21.548-.73c.862 0 1.602-.12 2.221-.364.641-.243 1.282-.64 1.923-1.194l3.282 3.448c-1.702 1.945-4.244 2.918-7.625 2.918-2.1 0-3.945-.398-5.536-1.194-1.592-.796-2.829-1.9-3.713-3.315-.862-1.414-1.293-3.017-1.293-4.807 0-1.768.431-3.348 1.293-4.74.862-1.415 2.044-2.52 3.547-3.316 1.525-.795 3.227-1.193 5.105-1.193 1.746 0 3.337.365 4.774 1.094a8.255 8.255 0 013.481 3.15c.862 1.37 1.293 3.005 1.293 4.906l-12.83 2.453c.685 1.436 2.045 2.155 4.078 2.155zm-.763-9.282c-1.083 0-1.967.343-2.652 1.028-.685.663-1.072 1.624-1.16 2.884l7.293-1.425a3.266 3.266 0 00-1.26-1.79c-.618-.465-1.359-.697-2.221-.697zm22.132-4.475c1.967 0 3.68.376 5.138 1.127 1.459.752 2.575 1.834 3.349 3.249.795 1.392 1.193 3.028 1.193 4.906 0 1.857-.365 3.492-1.094 4.907-.729 1.392-1.757 2.475-3.083 3.248-1.326.752-2.862 1.128-4.608 1.128-2.055 0-3.669-.63-4.84-1.89v8.023h-6.299v-15.35c0-1.856.42-3.491 1.26-4.906.84-1.414 2.033-2.508 3.58-3.282 1.547-.773 3.349-1.16 5.404-1.16zm-.298 13.559c1.127 0 2.033-.387 2.718-1.16.707-.796 1.061-1.835 1.061-3.117s-.354-2.31-1.061-3.083c-.685-.795-1.591-1.193-2.718-1.193s-2.034.398-2.719 1.193c-.685.774-1.027 1.801-1.027 3.083 0 1.304.331 2.343.994 3.117.685.773 1.602 1.16 2.752 1.16z" fill="#161616"/><path d="M28.862 6.32h7.731v16.27L48.051 6.32h6.084v27.71h-6.441V17.8L36.276 34.03h-7.414V6.32z" fill="#FEB618"/><path d="M12.242 27.894C7.19 23.33 8.22 16.932 1.209 13.152c-1.636-.88 14.504-4.433 22.32.556 5.712 3.649 7.22 11.238 3.605 14.9-3.616 3.663-9.841 3.85-14.892-.714z" fill="#00CC52"/><path d="M12.242 27.894C7.19 23.33 8.22 16.932 1.209 13.152c-1.636-.88 14.504-4.433 22.32.556 5.712 3.649 7.22 11.238 3.605 14.9-3.616 3.663-9.841 3.85-14.892-.714z" fill="#00CC52"/><path d="M12.242 27.894C7.19 23.33 8.22 16.932 1.209 13.152c-1.636-.88 14.504-4.433 22.32.556 5.712 3.649 7.22 11.238 3.605 14.9-3.616 3.663-9.841 3.85-14.892-.714z" stroke="#00CC52" stroke-width="1.197" stroke-linecap="round" stroke-linejoin="round"/><path d="M14.52 17.802a.598.598 0 11.628-1.019l-.628 1.018zm.628-1.019c3.298 2.036 6.888 5.267 9.653 8.489 1.384 1.612 2.574 3.237 3.422 4.723.836 1.466 1.384 2.873 1.384 4.031H28.41c0-.836-.416-2.018-1.227-3.439-.799-1.401-1.94-2.963-3.29-4.536-2.704-3.15-6.203-6.293-9.373-8.25l.628-1.018z" fill="#00CC52"/><path d="M73.269 34.031l-.04-14.687-7.136 14.532h-3.489L55.468 19.66v14.37h-7.215V6.32h6.462l9.752 18.57 9.515-18.57h6.462l.08 27.711h-7.255z" fill="#FFB718"/></symbol><symbol fill="none" id="sprite-search" viewBox="0 0 24 24"><title>search</title><path d="M15.5 14h-.79l-.28-.27A6.471 6.471 0 0016 9.5 6.5 6.5 0 109.5 16c1.61 0 3.09-.59 4.23-1.57l.27.28v.79l5 4.99L20.49 19l-4.99-5zm-6 0C7.01 14 5 11.99 5 9.5S7.01 5 9.5 5 14 7.01 14 9.5 11.99 14 9.5 14z" fill="#00CC52"/></symbol></svg>