<svg xmlns="http://www.w3.org/2000/svg"><symbol fill="none" id="sprite-advantage-1" viewBox="0 0 154 37"><title>advantage-1</title><path d="M18.17 1v35H6.37V9.9h-6V1h17.8zm20.148 35.8c-3.1 0-5.85-.717-8.25-2.15-2.367-1.467-4.234-3.567-5.6-6.3-1.334-2.767-2-6.05-2-9.85s.666-7.067 2-9.8c1.366-2.767 3.233-4.867 5.6-6.3 2.4-1.467 5.15-2.2 8.25-2.2 3.1 0 5.833.733 8.2 2.2 2.4 1.433 4.266 3.533 5.6 6.3 1.366 2.733 2.05 6 2.05 9.8 0 3.8-.684 7.083-2.05 9.85-1.334 2.733-3.2 4.833-5.6 6.3-2.367 1.433-5.1 2.15-8.2 2.15zm0-9.45c2.666 0 4-2.95 4-8.85 0-5.9-1.334-8.85-4-8.85-2.667 0-4 2.95-4 8.85 0 5.9 1.333 8.85 4 8.85zm34.619 9.45c-3.1 0-5.85-.717-8.25-2.15-2.367-1.467-4.234-3.567-5.6-6.3-1.334-2.767-2-6.05-2-9.85s.666-7.067 2-9.8c1.366-2.767 3.233-4.867 5.6-6.3 2.4-1.467 5.15-2.2 8.25-2.2 3.1 0 5.833.733 8.2 2.2 2.4 1.433 4.266 3.533 5.6 6.3 1.366 2.733 2.05 6 2.05 9.8 0 3.8-.684 7.083-2.05 9.85-1.334 2.733-3.2 4.833-5.6 6.3-2.367 1.433-5.1 2.15-8.2 2.15zm0-9.45c2.666 0 4-2.95 4-8.85 0-5.9-1.334-8.85-4-8.85-2.667 0-4 2.95-4 8.85 0 5.9 1.333 8.85 4 8.85zm34.619 9.45c-3.1 0-5.85-.717-8.25-2.15-2.367-1.467-4.233-3.567-5.6-6.3-1.334-2.767-2-6.05-2-9.85s.666-7.067 2-9.8c1.367-2.767 3.233-4.867 5.6-6.3 2.4-1.467 5.15-2.2 8.25-2.2 3.1 0 5.833.733 8.2 2.2 2.4 1.433 4.267 3.533 5.6 6.3 1.367 2.733 2.05 6 2.05 9.8 0 3.8-.683 7.083-2.05 9.85-1.333 2.733-3.2 4.833-5.6 6.3-2.367 1.433-5.1 2.15-8.2 2.15zm0-9.45c2.667 0 4-2.95 4-8.85 0-5.9-1.333-8.85-4-8.85s-4 2.95-4 8.85c0 5.9 1.333 8.85 4 8.85zm45.569-4.6h-8.25v8h-9v-8h-8.25v-8.5h8.25v-8h9v8h8.25v8.5z" fill="#fff"/></symbol><symbol fill="none" id="sprite-advantage-2" viewBox="0 0 90 89"><title>advantage-2</title><path d="M44.411 32.678c.847.328 1.678-.475 1.397-1.33-1.926-5.87-8.9-8.06-15.384-2.852-3.41 2.74-4.692 3.321-4.724 3.336 2.248 2.223 4.817 9.682 10.422 10.507 6.175 1.107 11.64-4.9 7.169-7.65a19.25 19.25 0 00-10.114-2.857 19.346 19.346 0 0111.234.846zm27.961-4.183c-11.191-8.99-18.329 5.187-13.892 3.782a19.284 19.284 0 0110.05-.445 19.338 19.338 0 00-14.848 6.971c.295-6.786.742-11.034 1.26-14.194 2.99-.102 6.977-2.49 9.166-6.669C67.88 11.262 66.13 4.414 65.568.094c-2.949 2.84-15.829-.488-20.935 8.165-2.256 3.822-1.6 8.473.773 11.877.75 1.077 2.547.56 2.598-.747.223-5.689 3.086-9.987 8.423-12.367a25.549 25.549 0 00-4.78 10.055c-1.263 5.531-2.581 9.16-3.066 26.79-.049 1.787 1.416 3.267 3.224 3.245 1.31-.017 2.431-.838 2.935-2.034.765-1.817 2.012-3.699 4.04-5.422 1.928 2.106 4.86 3.227 7.895 2.683 5.582-.821 8.187-8.297 10.422-10.508-.033-.014-1.314-.596-4.725-3.336zm16.452 21.967c-3.498-2.348-7.306-.675-9.055.324L57.823 66.669l-12.85.003-3.212-3.177h11.801c3.55 0 7.524-2.286 7.524-6.355 0-4.32-3.975-6.354-7.524-6.354H49.14c-3.285 0-7.124.29-9.831-1.144-2.572-1.294-5.533-2.03-8.695-2.03-5.308 0-10.059 2.093-13.314 5.393L0 69.845l19.274 19.061 6.425-9.53h30.36c3.239 0 6.364-1.175 8.785-3.301l24.2-21.26c1.345-1.18 1.27-3.354-.22-4.353z" fill="#fff"/></symbol><symbol fill="none" id="sprite-advantage-3" viewBox="0 0 89 89"><title>advantage-3</title><g clip-path="url(#clip0)"><path d="M73.474 27.056a31.572 31.572 0 012.282-13.888 1.577 1.577 0 00-.992-2.212 113.472 113.472 0 00-59.003.168l.01.06a1.587 1.587 0 00-1.26 2.212 28.77 28.77 0 012.074 13.491c-.655 9.146-4.038 11.438-6.091 18.5-1.637 5.635-.447 11.021 2.768 15.872 6.517 9.92 20.226 16.348 31.326 19.572.291.086.601.086.893 0 11.08-3.314 24.75-9.86 31.178-19.84 3.174-4.96 4.325-10.306 2.638-15.921-2.093-7.013-5.327-8.868-5.823-18.014z" fill="#fff"/><path d="M86.935 45.377c-2.35-7.866-6.14-8.858-5.842-19.84a49.691 49.691 0 014.315-17.805 1.577 1.577 0 00-.992-2.212c-27.28-7.45-51.95-7.36-79.16.278a1.577 1.577 0 00-1.16 2.143 49.769 49.769 0 014.483 17.855c.377 10.981-3.392 11.973-5.694 19.909C.901 52.53 2.35 59.037 6.248 64.989c7.936 12.132 24.8 19.998 38.39 23.946.291.087.601.087.892 0 13.481-4.027 30.256-12.033 38.191-24.254 3.85-5.952 5.248-12.489 3.214-19.304zm-5.852 17.598c-7.38 11.428-23.47 19.006-36.009 22.815-12.667-3.74-28.747-11.209-36.187-22.527C5.484 58.094 4.215 52.44 5.91 46.578c2.321-8.045 6.22-9.236 5.813-20.881a51.4 51.4 0 00-4.047-17.34c25.355-6.835 48.795-6.924 74.2-.288a51.405 51.405 0 00-3.909 17.37c-.357 12.181 3.531 12.737 5.952 20.831 1.746 5.853.516 11.507-2.837 16.705z" fill="#fff"/><path d="M40.05 27.73V56h-9.53V34.92h-4.846v-7.19H40.05zm25.12 17.569h-6.664v6.462h-7.269v-6.462h-6.663v-6.865h6.663V31.97h7.27v6.462h6.663v6.865z" fill="#00CC52"/></g><defs><clipPath id="clip0"><path fill="#fff" d="M0 0h89v89H0z"/></clipPath></defs></symbol><symbol fill="none" id="sprite-advantage-4" viewBox="0 0 89 89"><title>advantage-4</title><g clip-path="url(#clip0)" fill="#fff"><path d="M26.702 45.983a7.416 7.416 0 100-14.832 7.416 7.416 0 000 14.832z"/><path d="M52.1 35.356l-.935-.117c-2.401-.301-4.39-1.813-5.194-3.947-.14-.37-.29-.734-.451-1.098-.962-2.16-.601-4.731.94-6.711l.472-.607c.458-.59.406-1.43-.123-1.96l-2.46-2.458a1.487 1.487 0 00-1.96-.122l-.605.47c-1.979 1.541-4.553 1.903-6.712.94a21.66 21.66 0 00-1.099-.45c-2.133-.804-3.646-2.795-3.945-5.194l-.117-.935a1.483 1.483 0 00-1.472-1.3h-3.478c-.748 0-1.38.557-1.471 1.3l-.117.934c-.302 2.402-1.813 4.392-3.946 5.195-.37.14-.737.289-1.099.45-2.16.957-4.733.6-6.711-.94l-.606-.472a1.48 1.48 0 00-1.959.122l-2.462 2.46a1.484 1.484 0 00-.123 1.959l.472.606c1.54 1.98 1.9 4.552.94 6.713-.162.364-.312.729-.45 1.098-.805 2.133-2.795 3.646-5.195 3.945l-.935.117A1.485 1.485 0 000 36.827v3.478c0 .748.558 1.38 1.3 1.471l.932.117c2.401.302 4.392 1.813 5.196 3.947.14.37.289.735.45 1.098.96 2.16.601 4.731-.94 6.711l-.47.607c-.46.59-.406 1.43.123 1.96l2.46 2.458a1.48 1.48 0 001.959.124l.605-.47c1.98-1.542 4.552-1.904 6.711-.94.364.16.73.31 1.1.45 2.132.804 3.645 2.794 3.945 5.194l.117.935a1.483 1.483 0 001.471 1.299h3.479a1.48 1.48 0 001.47-1.3l.118-.934c.3-2.401 1.813-4.392 3.945-5.194.371-.14.738-.29 1.1-.45 2.159-.96 4.73-.602 6.712.94l.606.47c.588.458 1.43.406 1.959-.123l2.46-2.46a1.478 1.478 0 00.124-1.957l-.472-.607c-1.541-1.98-1.901-4.552-.94-6.713.16-.363.311-.728.45-1.098.804-2.133 2.795-3.645 5.195-3.945l.934-.117a1.483 1.483 0 001.3-1.472v-3.478c0-.747-.557-1.38-1.3-1.471zM26.701 48.949c-5.725 0-10.382-4.657-10.382-10.382s4.657-10.382 10.382-10.382 10.383 4.657 10.383 10.382S32.427 48.95 26.702 48.95zM66.749 72.68a5.933 5.933 0 100-11.865 5.933 5.933 0 000 11.866z"/><path d="M87.698 63.844l-.77-.096c-1.88-.236-3.438-1.417-4.066-3.081a17.581 17.581 0 00-.376-.921c-.752-1.691-.468-3.707.741-5.26l.389-.498c.46-.59.406-1.431-.122-1.96l-2.026-2.024a1.482 1.482 0 00-1.958-.123l-.5.389c-1.554 1.208-3.57 1.492-5.26.741-.305-.135-.61-.26-.92-.376-1.666-.628-2.846-2.185-3.08-4.064l-.097-.77a1.482 1.482 0 00-1.472-1.3h-2.864c-.747 0-1.38.557-1.473 1.3l-.095.77c-.236 1.88-1.416 3.438-3.082 4.065a17.7 17.7 0 00-.918.377c-1.692.749-3.706.467-5.262-.743l-.498-.387a1.485 1.485 0 00-1.958.123l-2.025 2.024a1.484 1.484 0 00-.123 1.96l.389.498c1.209 1.554 1.493 3.57.741 5.261-.135.304-.26.611-.375.918-.627 1.666-2.186 2.846-4.067 3.082l-.77.097a1.483 1.483 0 00-1.299 1.471v2.864c0 .748.556 1.38 1.3 1.472l.77.096c1.88.236 3.437 1.416 4.065 3.08.117.31.242.616.376.922.752 1.69.468 3.706-.741 5.26l-.389.497c-.46.59-.406 1.432.123 1.96l2.025 2.024c.53.528 1.367.582 1.958.123l.5-.388c1.554-1.21 3.57-1.492 5.26-.742.304.135.61.26.918.377 1.666.627 2.847 2.185 3.083 4.064l.094.77a1.482 1.482 0 001.473 1.299h2.865a1.48 1.48 0 001.47-1.3l.096-.77c.236-1.88 1.416-3.437 3.083-4.066.309-.117.616-.242.918-.377 1.691-.752 3.707-.469 5.261.743l.499.387c.59.459 1.43.405 1.957-.123l2.027-2.024a1.484 1.484 0 00.121-1.96l-.389-.498c-1.208-1.555-1.492-3.57-.741-5.261.135-.304.26-.611.377-.918.627-1.666 2.186-2.846 4.065-3.082l.77-.097a1.482 1.482 0 001.298-1.471v-2.864a1.478 1.478 0 00-1.296-1.47zm-20.95 11.803c-4.906 0-8.898-3.991-8.898-8.899 0-4.908 3.992-8.9 8.899-8.9 4.908 0 8.9 3.992 8.9 8.9s-3.994 8.9-8.9 8.9zm2.967-53.395a2.967 2.967 0 100-5.933 2.967 2.967 0 000 5.933z"/><path d="M87.698 16.586l-.66-.083c-1.51-.189-2.811-1.173-3.312-2.507a14.862 14.862 0 00-.328-.798c-.613-1.378-.38-3.023.608-4.292l.334-.427c.46-.59.408-1.43-.122-1.96l-1.735-1.735a1.487 1.487 0 00-1.96-.123l-.428.334c-1.27.987-2.916 1.222-4.293.61a14.496 14.496 0 00-.8-.329c-1.353-.51-2.314-1.78-2.506-3.312l-.081-.66A1.483 1.483 0 0070.942.005h-2.455c-.747 0-1.38.558-1.471 1.3l-.082.658c-.188 1.51-1.173 2.81-2.503 3.312-.27.1-.539.21-.803.33-1.376.61-3.023.379-4.294-.61l-.428-.332a1.48 1.48 0 00-1.958.123L55.212 6.52a1.482 1.482 0 00-.121 1.96l.332.427c.988 1.27 1.222 2.916.61 4.292-.118.264-.226.53-.328.8-.502 1.333-1.802 2.316-3.312 2.504l-.66.083c-.742.093-1.3.724-1.3 1.472v2.455c0 .747.557 1.379 1.3 1.471l.66.083c1.511.188 2.81 1.173 3.313 2.507.101.268.21.535.328.798.613 1.377.378 3.022-.61 4.292l-.332.427c-.46.59-.408 1.43.122 1.96l1.735 1.735c.528.53 1.37.583 1.96.123l.428-.334c1.27-.988 2.915-1.22 4.293-.61.265.12.532.228.799.328 1.354.51 2.315 1.78 2.505 3.313l.083.66a1.484 1.484 0 001.472 1.299h2.454c.748 0 1.38-.558 1.473-1.3l.082-.658c.191-1.534 1.152-2.803 2.503-3.312.27-.1.539-.21.803-.33 1.376-.612 3.023-.38 4.294.61l.428.332c.59.459 1.43.405 1.96-.123l1.735-1.735c.53-.53.581-1.369.122-1.96l-.332-.427c-.99-1.27-1.222-2.916-.61-4.292.117-.264.227-.53.328-.8.503-1.333 1.802-2.316 3.313-2.505l.66-.083A1.482 1.482 0 0089 20.513v-2.456a1.49 1.49 0 00-1.302-1.471zm-17.983 8.632a5.939 5.939 0 01-5.933-5.933 5.939 5.939 0 015.933-5.932 5.939 5.939 0 015.933 5.932 5.94 5.94 0 01-5.933 5.933z"/></g><defs><clipPath id="clip0"><path fill="#fff" d="M0 0h89v89H0z"/></clipPath></defs></symbol><symbol fill="none" id="sprite-author" viewBox="0 0 16 16"><title>author</title><path d="M11.319 7.564c.43-.638.681-1.405.681-2.23V4c0-2.206-1.794-4-4-4S4 1.794 4 4v1.333c0 .826.251 1.593.681 2.231a6.659 6.659 0 00-3.348 5.77V14c0 1.103.898 2 2 2h9.334c1.102 0 2-.897 2-2v-.667a6.659 6.659 0 00-3.348-5.769zM5.333 4A2.67 2.67 0 018 1.333 2.67 2.67 0 0110.667 4v1.333A2.67 2.67 0 018 8a2.67 2.67 0 01-2.667-2.667V4zm8 10a.668.668 0 01-.666.667H3.333A.668.668 0 012.667 14v-.667a5.338 5.338 0 012.97-4.779c.664.487 1.479.78 2.363.78.884 0 1.7-.293 2.363-.78a5.338 5.338 0 012.97 4.78V14z" fill="#00CC52"/></symbol><symbol fill="none" id="sprite-basket" viewBox="0 0 36 33"><title>basket</title><path d="M35.68 8.677a1.794 1.794 0 00-.645-.563 1.818 1.818 0 00-.835-.203H9.6L7.521 2.987a3.555 3.555 0 00-1.325-1.592A3.621 3.621 0 004.2.8H0v3.556h4.2l8.539 20.24c.136.323.367.6.663.795.295.194.643.298.998.298h14.4c.75 0 1.422-.46 1.687-1.152l5.4-14.222a1.757 1.757 0 00-.207-1.638zM15.3 32.8c1.491 0 2.7-1.194 2.7-2.666 0-1.473-1.209-2.667-2.7-2.667s-2.7 1.194-2.7 2.667c0 1.472 1.209 2.666 2.7 2.666zm12.6 0c1.491 0 2.7-1.194 2.7-2.666 0-1.473-1.209-2.667-2.7-2.667s-2.7 1.194-2.7 2.667c0 1.472 1.209 2.666 2.7 2.666z" fill="#00CC52"/></symbol><symbol fill="none" id="sprite-big-catalog-menu-1" viewBox="0 0 20 20"><title>big-catalog-menu-1</title><g clip-path="url(#clip0)" fill="#fff"><path d="M9.99 18.333a.374.374 0 01-.086-.009l-7.911-1.667a.417.417 0 01-.331-.407v-7.5a.417.417 0 01.833 0v7.162l7.078 1.491V2.156a.408.408 0 01.114-.36.424.424 0 01.458-.094.417.417 0 01.261.381v15.834a.416.416 0 01-.417.416z"/><path d="M10.006 18.333a.416.416 0 01-.417-.416V2.292a.417.417 0 01.833 0v15.111l7.078-1.491V8.75a.417.417 0 01.833 0v7.5a.417.417 0 01-.33.407l-7.911 1.667a.38.38 0 01-.086.01z"/><path d="M19.583 9.167h-6.668a.417.417 0 01-.382-.25L9.621 2.25a.417.417 0 01.467-.575l7.915 1.667c.145.03.262.136.309.276l1.666 5a.416.416 0 01-.395.55zm-6.395-.834h5.817l-1.408-4.225-6.889-1.45 2.48 5.675z"/><path d="M7.085 9.167H.416a.416.416 0 01-.395-.55l1.667-5a.417.417 0 01.31-.275l7.914-1.667a.415.415 0 01.467.575L7.467 8.917a.416.416 0 01-.382.25zm-6.09-.834h5.817l2.48-5.676-6.889 1.451L.995 8.333z"/></g><defs><clipPath id="clip0"><path fill="#fff" d="M0 0h20v20H0z"/></clipPath></defs></symbol><symbol fill="none" id="sprite-big-catalog-menu-2" viewBox="0 0 20 20"><title>big-catalog-menu-2</title><path d="M17.188 7.344h-.313v-2.5a1.564 1.564 0 00-1.563-1.563H4.688c-.863.001-1.562.7-1.563 1.563v2.5h-.313A2.816 2.816 0 000 10.156v4.375h.625v2.188h1.563V14.53h15.624v2.188h1.563V14.53H20v-4.375a2.816 2.816 0 00-2.813-2.812zM3.75 4.844c0-.518.42-.938.938-.938h10.625c.517 0 .937.42.937.938v2.5h-.938v-1.25a.937.937 0 00-.937-.938h-2.813a.937.937 0 00-.937.938v1.25h-1.25v-1.25a.937.937 0 00-.938-.938H5.626a.937.937 0 00-.938.938v1.25H3.75v-2.5zm10.938 1.25v1.25H11.25v-1.25c0-.173.14-.313.313-.313h2.812c.173 0 .313.14.313.313zm-5.938 0v1.25H5.312v-1.25c0-.173.14-.313.313-.313h2.813c.172 0 .312.14.312.313zm-7.188 10H1.25V14.53h.313v1.563zm17.188 0h-.313V14.53h.313v1.563zm.625-2.188H.625v-1.562h18.75v1.562zm0-2.187H.625v-1.563A2.19 2.19 0 012.813 7.97h14.374a2.19 2.19 0 012.188 2.187v1.563z" fill="#fff"/></symbol><symbol fill="none" id="sprite-big-catalog-menu-3" viewBox="0 0 20 20"><title>big-catalog-menu-3</title><path d="M16.25.313H3.75a.312.312 0 00-.313.312v.938a.312.312 0 00.313.312h.313v15.938a.313.313 0 00.312.312v1.25a.313.313 0 00.313.313h10.625a.313.313 0 00.312-.313v-1.25a.313.313 0 00.313-.313V1.876h.312a.313.313 0 00.313-.313V.625a.312.312 0 00-.313-.313zM15 19.063H5v-.938h10v.938zM4.687 17.5V1.875h5V17.5h-5zm10.625 0h-5V1.875h5V17.5zm.626-16.25H4.062V.937h11.875v.313z" fill="#fff"/><path d="M9.063 8.75a.312.312 0 00-.313.313v1.874a.313.313 0 10.625 0V9.063a.312.312 0 00-.313-.313zm1.875 2.5a.313.313 0 00.312-.313V9.063a.312.312 0 10-.625 0v1.874a.313.313 0 00.313.313z" fill="#fff"/></symbol><symbol fill="none" id="sprite-big-catalog-menu-4" viewBox="0 0 20 20"><title>big-catalog-menu-4</title><path d="M12.708 15.414a.418.418 0 00.416-.417v-1.25a.418.418 0 00-.416-.416.418.418 0 00-.417.416v1.25c0 .229.188.417.417.417zm-5.416 0c.23 0 .417-.188.417-.417v-1.25a.418.418 0 00-.417-.416.418.418 0 00-.416.416v1.25c0 .229.187.417.416.417z" fill="#fff"/><path d="M19.373 10.415h-6.665v-.063c0-.662-.496-1.116-1.25-1.175v-.845h3.766c.679 0 1.233-.55 1.233-1.233V1.233A1.23 1.23 0 0015.224 0H4.776a1.23 1.23 0 00-1.233 1.233v5.87c0 .679.55 1.233 1.233 1.233h3.766v.845c-.754.059-1.25.513-1.25 1.175v.063H.627a.418.418 0 00-.417.416c0 .23.188.417.417.417h.417v7.082c0 .229.187.416.416.416h.833v.833a.418.418 0 00.833 0v-.833h13.748v.833a.417.417 0 00.833 0v-.833h.833a.417.417 0 00.416-.416v-7.086h.417c.23 0 .417-.188.417-.417a.418.418 0 00-.417-.416zM4.776 7.503a.406.406 0 01-.4-.404V1.233c0-.22.18-.4.4-.4h10.452c.22 0 .4.18.4.4v5.87a.4.4 0 01-.4.4H4.776zm5.849.829v.833h-1.25v-.833h1.25zm-1.92 1.666h2.586c.217 0 .584.046.584.354v.063h-3.75l-.004-.063c0-.308.367-.354.583-.354zm.67 7.915H1.877v-6.665h7.498v6.665zm8.748 0h-7.915v-6.665h7.915v6.665z" fill="#fff"/><path d="M13.974 1.25H6.026a1.23 1.23 0 00-1.233 1.233v3.37c0 .679.55 1.233 1.233 1.233h7.952a1.236 1.236 0 001.23-1.237V2.483c0-.68-.55-1.233-1.234-1.233zm.404 4.603a.4.4 0 01-.4.4H6.026a.406.406 0 01-.4-.404V2.483a.4.4 0 01.4-.4h7.952a.4.4 0 01.4.4v3.37z" fill="#fff"/></symbol><symbol fill="none" id="sprite-big-catalog-menu-5" viewBox="0 0 20 20"><title>big-catalog-menu-5</title><path d="M19.667 0H.333A.333.333 0 000 .333v5.334C0 5.85.15 6 .333 6h19.334A.333.333 0 0020 5.667V.333A.333.333 0 0019.667 0zm-.334 5.333H.667V.667h18.666v4.666zm.334 6H.333a.333.333 0 00-.333.334v8c0 .184.15.333.333.333h19.334a.333.333 0 00.333-.333v-8a.333.333 0 00-.333-.334zm-.334 8H.667V12h18.666v7.333z" fill="#fff"/><path d="M6.333 1.333H1.667a.333.333 0 00-.334.334v2.667c0 .184.15.333.334.333h4.666a.333.333 0 00.334-.333V1.667a.333.333 0 00-.334-.334zM6 4H2V2h4v2z" fill="#fff"/><path d="M5 2.333H3A.333.333 0 103 3h2a.333.333 0 100-.667z" fill="#fff"/><path d="M4 2.333a.333.333 0 00-.333.334v.667a.333.333 0 10.666 0v-.667A.333.333 0 004 2.334zm14.333-1h-4.666a.333.333 0 00-.334.334v2.667c0 .184.15.333.334.333h4.666a.333.333 0 00.334-.333V1.667a.333.333 0 00-.334-.334zM18 4h-4V2h4v2z" fill="#fff"/><path d="M17 2.333h-2A.333.333 0 1015 3h2a.333.333 0 100-.667z" fill="#fff"/><path d="M16 2.333a.333.333 0 00-.333.334v.667a.333.333 0 10.666 0v-.667A.333.333 0 0016 2.334zm-3.667-1H7.667a.333.333 0 00-.334.334v2.667c0 .184.15.333.334.333h4.666a.333.333 0 00.334-.333V1.667a.333.333 0 00-.334-.334zM12 4H8V2h4v2z" fill="#fff"/><path d="M11 2.333H9A.333.333 0 109 3h2a.333.333 0 100-.667z" fill="#fff"/><path d="M10 2.333a.333.333 0 00-.333.334v.667a.333.333 0 10.666 0v-.667A.333.333 0 0010 2.334zm8.333 10.333H10a.333.333 0 00-.333.334v2.666c0 .185.149.334.333.334h8.333a.333.333 0 00.334-.334V13a.333.333 0 00-.334-.334zM18 15.333h-7.667v-2H18v2z" fill="#fff"/><path d="M15.333 13.667h-2a.333.333 0 100 .666h2a.333.333 0 100-.666z" fill="#fff"/><path d="M14.333 13.667A.333.333 0 0014 14v.667a.333.333 0 10.667 0V14a.333.333 0 00-.334-.333zm4 1.666H10a.333.333 0 00-.333.334v2.666c0 .185.149.334.333.334h8.333a.333.333 0 00.334-.334v-2.666a.333.333 0 00-.334-.334zM18 18h-7.667v-2H18v2z" fill="#fff"/><path d="M15.333 16.333h-2a.333.333 0 100 .667h2a.333.333 0 100-.667z" fill="#fff"/><path d="M14.333 16.333a.333.333 0 00-.333.334v.666a.333.333 0 10.667 0v-.666a.333.333 0 00-.334-.334zM10 12.666H1.667a.333.333 0 00-.334.334v5.333c0 .184.15.334.334.334H10a.333.333 0 00.333-.334V13a.333.333 0 00-.333-.334zM9.667 18H2v-4.667h7.667V18z" fill="#fff"/><path d="M7 14.333H4.667a.333.333 0 00-.334.334v.666a.333.333 0 10.667 0V15h1.667v.333a.333.333 0 10.666 0v-.666A.333.333 0 007 14.333zm5.667-5.666h-1.334A.333.333 0 0011 9v1.333c0 .185.15.334.333.334h1.334a.333.333 0 00.333-.334V9a.333.333 0 00-.333-.333zM12.333 10h-.666v-.667h.666V10z" fill="#fff"/><path d="M13.333 8.667h-2.666a.333.333 0 100 .666h2.666a.333.333 0 100-.666zm-5 0H7A.333.333 0 006.667 9v1.333c0 .185.15.334.333.334h1.333a.333.333 0 00.334-.334V9a.333.333 0 00-.334-.333zM8 10h-.667v-.667H8V10z" fill="#fff"/><path d="M9 8.667H6.333a.333.333 0 100 .666H9a.333.333 0 100-.666zM14 10H5.667a.333.333 0 00-.334.333v1.334c0 .184.15.333.334.333H14a.333.333 0 00.333-.333v-1.334A.333.333 0 0014 10zm-.333 1.333H6v-.666h7.667v.666zM4.596 8.795a.333.333 0 00-.263-.128H1a.333.333 0 00-.323.414l.424 1.696c.18.72.824 1.223 1.566 1.223.742 0 1.386-.503 1.566-1.223l.424-1.696a.333.333 0 00-.06-.286zm-1.01 1.821a.946.946 0 01-1.838 0l-.32-1.283h2.478l-.32 1.283z" fill="#fff"/><path d="M4.518 6.723a.334.334 0 00-.462.092l-1.333 2a.333.333 0 00.554.37l1.334-2a.333.333 0 00-.093-.462zM19 6.667h-2.667a1.001 1.001 0 000 2h1V10h-1.666a.333.333 0 00-.334.333v1.334c0 .184.15.333.334.333H19a.333.333 0 00.333-.333V7A.333.333 0 0019 6.667zm-.333 4.666H16v-.666h1.667a.333.333 0 00.333-.334v-2A.333.333 0 0017.667 8h-1.334a.333.333 0 010-.667h2.334v4z" fill="#fff"/></symbol><symbol fill="none" id="sprite-burger-open" viewBox="0 0 20 20"><title>burger-open</title><path d="M13.117 10l6.237 6.235a2.206 2.206 0 11-3.12 3.119L10 13.117l-6.234 6.237a2.206 2.206 0 11-3.12-3.12L6.883 10 .646 3.766a2.206 2.206 0 013.12-3.12L10 6.883 16.235.646a2.206 2.206 0 113.119 3.12L13.117 10z" fill="#FEB618"/></symbol><symbol fill="none" id="sprite-burger" viewBox="0 0 20 14"><title>burger</title><path fill="#FEB618" d="M0 0h20v2.333H0zm0 5.833h20v2.333H0zm0 5.834h20V14H0z"/></symbol><symbol id="sprite-button-basket" viewBox="0 0 18 18"><title>button-basket</title><g clip-path="url(#clip0)"><path d="M17.84 4.888a.9.9 0 00-.74-.388H4.8L3.76 2.007A1.795 1.795 0 002.1.9H0v1.8h2.1l4.27 10.247a.9.9 0 00.83.553h7.2a.902.902 0 00.843-.583l2.7-7.2a.9.9 0 00-.103-.83zM7.65 17.1a1.35 1.35 0 100-2.7 1.35 1.35 0 000 2.7zm6.3 0a1.35 1.35 0 100-2.7 1.35 1.35 0 000 2.7z"/></g></symbol><symbol fill="none" id="sprite-collections-block-more" viewBox="0 0 22 22"><title>collections-block-more</title><path d="M18.333 9.167v-2.75A1.839 1.839 0 0016.5 4.583h-11a1.839 1.839 0 00-1.833 1.834v2.75A1.839 1.839 0 001.833 11v4.583h1.22l.614 1.834h.916l.614-1.834h11.615l.605 1.834h.916l.615-1.834h1.219V11a1.839 1.839 0 00-1.834-1.833zm-8.25 0H5.5v-2.75h4.583v2.75zm6.417 0h-4.583v-2.75H16.5v2.75z" fill="#00CC52"/></symbol><symbol fill="none" id="sprite-favorite" viewBox="0 0 32 28"><title>favorite</title><path d="M23.5 0c-1.736 0-3.328.545-4.732 1.621-1.345 1.031-2.24 2.345-2.768 3.3-.527-.955-1.423-2.269-2.768-3.3C11.828.545 10.236 0 8.5 0 3.654 0 0 3.928 0 9.138c0 5.628 4.559 9.479 11.46 15.308 1.173.99 2.501 2.112 3.882 3.31a1.004 1.004 0 001.316 0c1.381-1.198 2.71-2.32 3.882-3.31C27.441 18.616 32 14.766 32 9.138 32 3.928 28.346 0 23.5 0z" fill="#00CC52"/></symbol><symbol fill="none" id="sprite-logo-2" viewBox="0 0 208 51"><title>logo-2</title><path d="M71.067 3.8V22h-4.991v-2.08a5.717 5.717 0 01-2.236 1.82c-.902.416-1.916.624-3.043.624-2.149 0-3.822-.685-5.017-2.054-1.197-1.387-1.794-3.354-1.794-5.902V3.8h5.148v10.452c0 1.283.285 2.245.858 2.886.589.641 1.386.962 2.392.962 1.057 0 1.906-.347 2.547-1.04.66-.693.989-1.716.989-3.068V3.8h5.147zm3.485 4.108h4.914v5.226h5.07V7.908h4.94V22h-4.94v-4.94h-5.07V22h-4.914V7.908zm36.612-.234c1.733 0 3.111.52 4.134 1.56 1.04 1.04 1.56 2.609 1.56 4.706V22h-4.94v-7.254c0-.988-.191-1.716-.572-2.184-.364-.468-.884-.702-1.56-.702-.746 0-1.344.26-1.794.78-.451.52-.676 1.309-.676 2.366V22h-4.94v-7.254c0-1.924-.711-2.886-2.132-2.886-.763 0-1.37.26-1.82.78-.45.52-.676 1.309-.676 2.366V22h-4.94V7.908h4.706V9.39a4.846 4.846 0 011.846-1.274 6.247 6.247 0 012.366-.442c.988 0 1.872.182 2.652.546a4.51 4.51 0 011.898 1.664 5.454 5.454 0 012.106-1.638c.849-.381 1.776-.572 2.782-.572zm16.147 10.79c.676 0 1.256-.095 1.742-.286.502-.19 1.005-.503 1.508-.936l2.574 2.704c-1.335 1.525-3.328 2.288-5.98 2.288-1.647 0-3.094-.312-4.342-.936-1.248-.624-2.219-1.49-2.912-2.6-.676-1.11-1.014-2.366-1.014-3.77 0-1.387.338-2.626 1.014-3.718a7.055 7.055 0 012.782-2.6c1.196-.624 2.53-.936 4.004-.936 1.369 0 2.617.286 3.744.858a6.475 6.475 0 012.73 2.47c.676 1.075 1.014 2.357 1.014 3.848l-10.062 1.924c.537 1.127 1.603 1.69 3.198 1.69zm-.598-7.28c-.85 0-1.543.269-2.08.806-.538.52-.841 1.274-.91 2.262l5.72-1.118a2.568 2.568 0 00-.988-1.404c-.486-.364-1.066-.546-1.742-.546zm17.357-3.51c1.543 0 2.886.295 4.03.884a6.108 6.108 0 012.626 2.548c.624 1.092.936 2.375.936 3.848 0 1.456-.286 2.739-.858 3.848a6.233 6.233 0 01-2.418 2.548c-1.04.59-2.244.884-3.614.884-1.612 0-2.877-.494-3.796-1.482v6.292h-4.94V15.006c0-1.456.33-2.739.988-3.848.659-1.11 1.595-1.967 2.808-2.574 1.214-.607 2.626-.91 4.238-.91zm-.234 10.634c.884 0 1.595-.303 2.132-.91.555-.624.832-1.439.832-2.444s-.277-1.811-.832-2.418c-.537-.624-1.248-.936-2.132-.936-.884 0-1.594.312-2.132.936-.537.607-.806 1.413-.806 2.418 0 1.023.26 1.837.78 2.444.538.607 1.257.91 2.158.91zm17.052 4.108c-4.749 0-7.124-2.002-7.124-6.006V7.908h4.914v4.472c.381-.243.893-.442 1.534-.598.659-.156 1.404-.234 2.236-.234 1.768 0 3.155.442 4.16 1.326 1.023.867 1.534 2.158 1.534 3.874 0 1.855-.65 3.267-1.95 4.238-1.283.953-3.051 1.43-5.304 1.43zm-.026-3.38c.728 0 1.283-.19 1.664-.572.381-.399.572-.936.572-1.612 0-.659-.191-1.161-.572-1.508-.364-.364-.893-.546-1.586-.546a3.36 3.36 0 00-1.352.26 2.334 2.334 0 00-.91.702v1.092c0 .693.182 1.23.546 1.612.381.381.927.572 1.638.572zm16.9-.572c.676 0 1.257-.095 1.742-.286.503-.19 1.005-.503 1.508-.936l2.574 2.704c-1.335 1.525-3.328 2.288-5.98 2.288-1.647 0-3.094-.312-4.342-.936-1.248-.624-2.219-1.49-2.912-2.6-.676-1.11-1.014-2.366-1.014-3.77 0-1.387.338-2.626 1.014-3.718a7.055 7.055 0 012.782-2.6c1.196-.624 2.531-.936 4.004-.936 1.369 0 2.617.286 3.744.858a6.475 6.475 0 012.73 2.47c.676 1.075 1.014 2.357 1.014 3.848l-10.062 1.924c.537 1.127 1.603 1.69 3.198 1.69zm-.598-7.28c-.849 0-1.543.269-2.08.806-.537.52-.841 1.274-.91 2.262l5.72-1.118a2.563 2.563 0 00-.988-1.404c-.485-.364-1.066-.546-1.742-.546zm17.358-3.51c1.542 0 2.886.295 4.03.884a6.113 6.113 0 012.626 2.548c.624 1.092.936 2.375.936 3.848 0 1.456-.286 2.739-.858 3.848a6.233 6.233 0 01-2.418 2.548c-1.04.59-2.245.884-3.614.884-1.612 0-2.878-.494-3.796-1.482v6.292h-4.94V15.006c0-1.456.329-2.739.988-3.848.658-1.11 1.594-1.967 2.808-2.574 1.213-.607 2.626-.91 4.238-.91zm-.234 10.634c.884 0 1.594-.303 2.132-.91.554-.624.832-1.439.832-2.444s-.278-1.811-.832-2.418c-.538-.624-1.248-.936-2.132-.936-.884 0-1.595.312-2.132.936-.538.607-.806 1.413-.806 2.418 0 1.023.26 1.837.78 2.444.537.607 1.256.91 2.158.91zM70.678 47l-.026-9.646-4.68 7.852h-2.288l-4.68-7.644V47h-4.732V28.8h4.238l6.396 10.504 6.24-10.504h4.237l.053 18.2h-4.759zm15.805-3.536c.676 0 1.256-.095 1.742-.286.502-.19 1.005-.503 1.508-.936l2.574 2.704c-1.335 1.525-3.328 2.288-5.98 2.288-1.647 0-3.094-.312-4.342-.936-1.248-.624-2.219-1.49-2.912-2.6-.676-1.11-1.014-2.366-1.014-3.77 0-1.387.338-2.626 1.014-3.718a7.057 7.057 0 012.782-2.6c1.196-.624 2.53-.936 4.004-.936 1.369 0 2.617.286 3.744.858a6.475 6.475 0 012.73 2.47c.676 1.075 1.014 2.357 1.014 3.848l-10.062 1.924c.537 1.127 1.603 1.69 3.198 1.69zm-.598-7.28c-.85 0-1.543.269-2.08.806-.538.52-.841 1.274-.91 2.262l5.72-1.118a2.562 2.562 0 00-.988-1.404c-.486-.364-1.066-.546-1.742-.546zm18.527-2.028c1.37 0 2.557.269 3.562.806a5.242 5.242 0 012.288 2.262c.538.97.806 2.106.806 3.406 0 1.335-.346 2.513-1.04 3.536-.676 1.005-1.62 1.794-2.834 2.366-1.196.555-2.548.832-4.056.832-2.478 0-4.454-.771-5.928-2.314-1.473-1.543-2.21-3.857-2.21-6.942 0-5.79 2.566-9.17 7.696-10.14l6.838-1.3.676 4.134-5.928 1.118c-1.508.277-2.617.728-3.328 1.352-.693.607-1.11 1.49-1.248 2.652 1.266-1.179 2.834-1.768 4.706-1.768zm-1.248 9.464c.884 0 1.578-.286 2.08-.858.52-.572.78-1.283.78-2.132 0-.901-.26-1.603-.78-2.106-.52-.52-1.213-.78-2.08-.78-.884 0-1.594.26-2.132.78-.52.52-.78 1.23-.78 2.132 0 .867.269 1.577.806 2.132.538.555 1.24.832 2.106.832zm17.647-.156c.676 0 1.256-.095 1.742-.286.502-.19 1.005-.503 1.508-.936l2.574 2.704c-1.335 1.525-3.328 2.288-5.98 2.288-1.647 0-3.094-.312-4.342-.936-1.248-.624-2.219-1.49-2.912-2.6-.676-1.11-1.014-2.366-1.014-3.77 0-1.387.338-2.626 1.014-3.718a7.055 7.055 0 012.782-2.6c1.196-.624 2.53-.936 4.004-.936 1.369 0 2.617.286 3.744.858a6.475 6.475 0 012.73 2.47c.676 1.075 1.014 2.357 1.014 3.848l-10.062 1.924c.537 1.127 1.603 1.69 3.198 1.69zm-.598-7.28c-.85 0-1.543.269-2.08.806-.538.52-.841 1.274-.91 2.262l5.72-1.118a2.568 2.568 0 00-.988-1.404c-.486-.364-1.066-.546-1.742-.546zm24.119-3.276V47h-4.94V36.834h-3.562l-.104 2.158c-.07 1.837-.252 3.354-.546 4.55-.295 1.196-.78 2.132-1.456 2.808-.676.659-1.604.988-2.782.988-.607 0-1.404-.113-2.392-.338l.208-4.03c.312.035.52.052.624.052.537 0 .944-.173 1.222-.52.277-.347.468-.806.572-1.378.104-.59.173-1.37.208-2.34l.208-5.876h12.74zm10.157 14.508c-4.749 0-7.124-2.002-7.124-6.006v-8.502h4.914v4.472c.382-.243.893-.442 1.534-.598.659-.156 1.404-.234 2.236-.234 1.768 0 3.155.442 4.16 1.326 1.023.867 1.534 2.158 1.534 3.874 0 1.855-.65 3.267-1.95 4.238-1.282.953-3.05 1.43-5.304 1.43zm-.026-3.38c.728 0 1.283-.19 1.664-.572.382-.399.572-.936.572-1.612 0-.659-.19-1.161-.572-1.508-.364-.364-.892-.546-1.586-.546-.502 0-.953.087-1.352.26a2.341 2.341 0 00-.91.702v1.092c0 .693.182 1.23.546 1.612.382.381.928.572 1.638.572z" fill="#fff"/><g clip-path="url(#clip0)"><path d="M12.137 0c1.702.155 3.346.406 4.923.76 8.98 2.009 20.165 8.725 20.165 20.117a16.63 16.63 0 01-4.13 11.022c-.512-9.106-4.2-17.669-10.488-24.27-3.123-3.28-6.73-5.878-10.47-7.629z" fill="#FEB618"/><path d="M30.377 46.126c0 .771-.622 1.397-1.39 1.397-.768 0-1.39-.626-1.39-1.398v-7.058c.957-.37 1.887-.818 2.78-1.342v8.4zM.142 1.252A1.391 1.391 0 011.477.244c6.415 0 13.563 3.483 19.121 9.317 6.193 6.5 9.665 15.053 9.776 24.082v.01l.003.006v.73c-.206.151-.415.298-.628.439-6.45 4.272-15.222 3.546-20.882-2.144-4.898-4.922-3.882-11.704-3.547-15.51.51-5.812.952-10.83-4.586-14.352a1.401 1.401 0 01-.592-1.57z" fill="#fff"/></g><defs><clipPath id="clip0"><path fill="#fff" transform="matrix(-1 0 0 1 41.867 0)" d="M0 0h41.867v47.092H0z"/></clipPath></defs></symbol><symbol fill="none" id="sprite-logo" viewBox="0 0 208 51"><title>logo</title><path d="M71.067 3.8V22h-4.991v-2.08a5.717 5.717 0 01-2.236 1.82c-.902.416-1.916.624-3.043.624-2.149 0-3.822-.685-5.017-2.054-1.197-1.387-1.794-3.354-1.794-5.902V3.8h5.148v10.452c0 1.283.285 2.245.858 2.886.589.641 1.386.962 2.392.962 1.057 0 1.906-.347 2.547-1.04.66-.693.989-1.716.989-3.068V3.8h5.147zm3.485 4.108h4.914v5.226h5.07V7.908h4.94V22h-4.94v-4.94h-5.07V22h-4.914V7.908zm36.612-.234c1.733 0 3.111.52 4.134 1.56 1.04 1.04 1.56 2.609 1.56 4.706V22h-4.94v-7.254c0-.988-.191-1.716-.572-2.184-.364-.468-.884-.702-1.56-.702-.746 0-1.344.26-1.794.78-.451.52-.676 1.309-.676 2.366V22h-4.94v-7.254c0-1.924-.711-2.886-2.132-2.886-.763 0-1.37.26-1.82.78-.45.52-.676 1.309-.676 2.366V22h-4.94V7.908h4.706V9.39a4.846 4.846 0 011.846-1.274 6.247 6.247 0 012.366-.442c.988 0 1.872.182 2.652.546a4.51 4.51 0 011.898 1.664 5.454 5.454 0 012.106-1.638c.849-.381 1.776-.572 2.782-.572zm16.147 10.79c.676 0 1.256-.095 1.742-.286.502-.19 1.005-.503 1.508-.936l2.574 2.704c-1.335 1.525-3.328 2.288-5.98 2.288-1.647 0-3.094-.312-4.342-.936-1.248-.624-2.219-1.49-2.912-2.6-.676-1.11-1.014-2.366-1.014-3.77 0-1.387.338-2.626 1.014-3.718a7.055 7.055 0 012.782-2.6c1.196-.624 2.53-.936 4.004-.936 1.369 0 2.617.286 3.744.858a6.475 6.475 0 012.73 2.47c.676 1.075 1.014 2.357 1.014 3.848l-10.062 1.924c.537 1.127 1.603 1.69 3.198 1.69zm-.598-7.28c-.85 0-1.543.269-2.08.806-.538.52-.841 1.274-.91 2.262l5.72-1.118a2.568 2.568 0 00-.988-1.404c-.486-.364-1.066-.546-1.742-.546zm17.357-3.51c1.543 0 2.886.295 4.03.884a6.108 6.108 0 012.626 2.548c.624 1.092.936 2.375.936 3.848 0 1.456-.286 2.739-.858 3.848a6.233 6.233 0 01-2.418 2.548c-1.04.59-2.244.884-3.614.884-1.612 0-2.877-.494-3.796-1.482v6.292h-4.94V15.006c0-1.456.33-2.739.988-3.848.659-1.11 1.595-1.967 2.808-2.574 1.214-.607 2.626-.91 4.238-.91zm-.234 10.634c.884 0 1.595-.303 2.132-.91.555-.624.832-1.439.832-2.444s-.277-1.811-.832-2.418c-.537-.624-1.248-.936-2.132-.936-.884 0-1.594.312-2.132.936-.537.607-.806 1.413-.806 2.418 0 1.023.26 1.837.78 2.444.538.607 1.257.91 2.158.91zm17.052 4.108c-4.749 0-7.124-2.002-7.124-6.006V7.908h4.914v4.472c.381-.243.893-.442 1.534-.598.659-.156 1.404-.234 2.236-.234 1.768 0 3.155.442 4.16 1.326 1.023.867 1.534 2.158 1.534 3.874 0 1.855-.65 3.267-1.95 4.238-1.283.953-3.051 1.43-5.304 1.43zm-.026-3.38c.728 0 1.283-.19 1.664-.572.381-.399.572-.936.572-1.612 0-.659-.191-1.161-.572-1.508-.364-.364-.893-.546-1.586-.546a3.36 3.36 0 00-1.352.26 2.334 2.334 0 00-.91.702v1.092c0 .693.182 1.23.546 1.612.381.381.927.572 1.638.572zm16.9-.572c.676 0 1.257-.095 1.742-.286.503-.19 1.005-.503 1.508-.936l2.574 2.704c-1.335 1.525-3.328 2.288-5.98 2.288-1.647 0-3.094-.312-4.342-.936-1.248-.624-2.219-1.49-2.912-2.6-.676-1.11-1.014-2.366-1.014-3.77 0-1.387.338-2.626 1.014-3.718a7.055 7.055 0 012.782-2.6c1.196-.624 2.531-.936 4.004-.936 1.369 0 2.617.286 3.744.858a6.475 6.475 0 012.73 2.47c.676 1.075 1.014 2.357 1.014 3.848l-10.062 1.924c.537 1.127 1.603 1.69 3.198 1.69zm-.598-7.28c-.849 0-1.543.269-2.08.806-.537.52-.841 1.274-.91 2.262l5.72-1.118a2.563 2.563 0 00-.988-1.404c-.485-.364-1.066-.546-1.742-.546zm17.358-3.51c1.542 0 2.886.295 4.03.884a6.113 6.113 0 012.626 2.548c.624 1.092.936 2.375.936 3.848 0 1.456-.286 2.739-.858 3.848a6.233 6.233 0 01-2.418 2.548c-1.04.59-2.245.884-3.614.884-1.612 0-2.878-.494-3.796-1.482v6.292h-4.94V15.006c0-1.456.329-2.739.988-3.848.658-1.11 1.594-1.967 2.808-2.574 1.213-.607 2.626-.91 4.238-.91zm-.234 10.634c.884 0 1.594-.303 2.132-.91.554-.624.832-1.439.832-2.444s-.278-1.811-.832-2.418c-.538-.624-1.248-.936-2.132-.936-.884 0-1.595.312-2.132.936-.538.607-.806 1.413-.806 2.418 0 1.023.26 1.837.78 2.444.537.607 1.256.91 2.158.91zM70.678 47l-.026-9.646-4.68 7.852h-2.288l-4.68-7.644V47h-4.732V28.8h4.238l6.396 10.504 6.24-10.504h4.237l.053 18.2h-4.759zm15.805-3.536c.676 0 1.256-.095 1.742-.286.502-.19 1.005-.503 1.508-.936l2.574 2.704c-1.335 1.525-3.328 2.288-5.98 2.288-1.647 0-3.094-.312-4.342-.936-1.248-.624-2.219-1.49-2.912-2.6-.676-1.11-1.014-2.366-1.014-3.77 0-1.387.338-2.626 1.014-3.718a7.057 7.057 0 012.782-2.6c1.196-.624 2.53-.936 4.004-.936 1.369 0 2.617.286 3.744.858a6.475 6.475 0 012.73 2.47c.676 1.075 1.014 2.357 1.014 3.848l-10.062 1.924c.537 1.127 1.603 1.69 3.198 1.69zm-.598-7.28c-.85 0-1.543.269-2.08.806-.538.52-.841 1.274-.91 2.262l5.72-1.118a2.562 2.562 0 00-.988-1.404c-.486-.364-1.066-.546-1.742-.546zm18.527-2.028c1.37 0 2.557.269 3.562.806a5.242 5.242 0 012.288 2.262c.538.97.806 2.106.806 3.406 0 1.335-.346 2.513-1.04 3.536-.676 1.005-1.62 1.794-2.834 2.366-1.196.555-2.548.832-4.056.832-2.478 0-4.454-.771-5.928-2.314-1.473-1.543-2.21-3.857-2.21-6.942 0-5.79 2.566-9.17 7.696-10.14l6.838-1.3.676 4.134-5.928 1.118c-1.508.277-2.617.728-3.328 1.352-.693.607-1.11 1.49-1.248 2.652 1.266-1.179 2.834-1.768 4.706-1.768zm-1.248 9.464c.884 0 1.578-.286 2.08-.858.52-.572.78-1.283.78-2.132 0-.901-.26-1.603-.78-2.106-.52-.52-1.213-.78-2.08-.78-.884 0-1.594.26-2.132.78-.52.52-.78 1.23-.78 2.132 0 .867.269 1.577.806 2.132.538.555 1.24.832 2.106.832zm17.647-.156c.676 0 1.256-.095 1.742-.286.502-.19 1.005-.503 1.508-.936l2.574 2.704c-1.335 1.525-3.328 2.288-5.98 2.288-1.647 0-3.094-.312-4.342-.936-1.248-.624-2.219-1.49-2.912-2.6-.676-1.11-1.014-2.366-1.014-3.77 0-1.387.338-2.626 1.014-3.718a7.055 7.055 0 012.782-2.6c1.196-.624 2.53-.936 4.004-.936 1.369 0 2.617.286 3.744.858a6.475 6.475 0 012.73 2.47c.676 1.075 1.014 2.357 1.014 3.848l-10.062 1.924c.537 1.127 1.603 1.69 3.198 1.69zm-.598-7.28c-.85 0-1.543.269-2.08.806-.538.52-.841 1.274-.91 2.262l5.72-1.118a2.568 2.568 0 00-.988-1.404c-.486-.364-1.066-.546-1.742-.546zm24.119-3.276V47h-4.94V36.834h-3.562l-.104 2.158c-.07 1.837-.252 3.354-.546 4.55-.295 1.196-.78 2.132-1.456 2.808-.676.659-1.604.988-2.782.988-.607 0-1.404-.113-2.392-.338l.208-4.03c.312.035.52.052.624.052.537 0 .944-.173 1.222-.52.277-.347.468-.806.572-1.378.104-.59.173-1.37.208-2.34l.208-5.876h12.74zm10.157 14.508c-4.749 0-7.124-2.002-7.124-6.006v-8.502h4.914v4.472c.382-.243.893-.442 1.534-.598.659-.156 1.404-.234 2.236-.234 1.768 0 3.155.442 4.16 1.326 1.023.867 1.534 2.158 1.534 3.874 0 1.855-.65 3.267-1.95 4.238-1.282.953-3.05 1.43-5.304 1.43zm-.026-3.38c.728 0 1.283-.19 1.664-.572.382-.399.572-.936.572-1.612 0-.659-.19-1.161-.572-1.508-.364-.364-.892-.546-1.586-.546-.502 0-.953.087-1.352.26a2.341 2.341 0 00-.91.702v1.092c0 .693.182 1.23.546 1.612.382.381.928.572 1.638.572z" fill="#161616"/><g clip-path="url(#clip0)"><path d="M12.137 0c1.702.155 3.346.406 4.923.76 8.98 2.009 20.165 8.725 20.165 20.117a16.63 16.63 0 01-4.13 11.022c-.512-9.106-4.2-17.669-10.488-24.27-3.123-3.28-6.73-5.878-10.47-7.629z" fill="#FEB618"/><path d="M30.377 46.126c0 .771-.622 1.397-1.39 1.397-.768 0-1.39-.626-1.39-1.398v-7.058c.957-.37 1.887-.818 2.78-1.342v8.4zM.142 1.253A1.391 1.391 0 011.477.244c6.415 0 13.563 3.483 19.121 9.317 6.193 6.501 9.665 15.054 9.776 24.083v.009a.84.84 0 00.003.006v.73c-.206.152-.415.298-.628.44-6.45 4.272-15.222 3.546-20.882-2.144C3.969 27.762 4.985 20.98 5.32 17.174c.51-5.811.952-10.83-4.586-14.351a1.401 1.401 0 01-.592-1.57z" fill="#00CC52"/></g><defs><clipPath id="clip0"><path fill="#fff" transform="matrix(-1 0 0 1 41.867 0)" d="M0 0h41.867v47.092H0z"/></clipPath></defs></symbol><symbol fill="none" id="sprite-popular-categories" viewBox="0 0 16 16"><title>popular-categories</title><path d="M0 0v4h4V0H0zm6.25 0v4H16V0H6.25zM0 6v4h4V6H0zm6.25 0v4H16V6H6.25zM0 12v4h4v-4H0zm6.25 0v4H16v-4H6.25z" fill="#00CC52"/></symbol><symbol fill="none" id="sprite-questions-form" viewBox="0 0 224 196"><title>questions-form</title><g opacity=".08" clip-path="url(#clip0)"><path d="M20.25 214.907v-20.173s50.625-20.173 101.25-20.173 101.25 20.173 101.25 20.173v20.173H20.25zm94.162-130.118C102.263 45.451 40.5 54.53 40.5 54.53s2.025 78.676 59.737 66.572C96.187 91.85 81 83.781 81 83.781c28.35 0 30.375 34.294 30.375 34.294v46.399h20.25V122.11s0-39.338 30.375-49.425c0 0-20.25 30.26-20.25 50.434 70.875 7.06 70.875-89.772 70.875-89.772S122.513 23.26 114.412 84.79z" fill="#000"/></g><defs><clipPath id="clip0"><path fill="#fff" d="M0 0h224v196H0z"/></clipPath></defs></symbol><symbol fill="none" id="sprite-review" viewBox="0 0 16 16"><title>review</title><path d="M8 1c4.418 0 8 2.91 8 6.5S12.418 14 8 14c-.424 0-.841-.027-1.247-.079-1.718 1.718-3.77 2.027-5.753 2.072v-.421c1.071-.525 2-1.48 2-2.572 0-.15-.012-.3-.034-.448C1.157 11.36 0 9.54 0 7.5 0 3.91 3.582 1 8 1z" fill="#00CC52"/></symbol><symbol fill="none" id="sprite-search" viewBox="0 0 24 24"><title>search</title><path d="M15.5 14h-.79l-.28-.27A6.471 6.471 0 0016 9.5 6.5 6.5 0 109.5 16c1.61 0 3.09-.59 4.23-1.57l.27.28v.79l5 4.99L20.49 19l-4.99-5zm-6 0C7.01 14 5 11.99 5 9.5S7.01 5 9.5 5 14 7.01 14 9.5 11.99 14 9.5 14z" fill="#00CC52"/></symbol><symbol fill="none" id="sprite-slider-arrow-left" viewBox="0 0 24 15"><title>slider-arrow-left</title><path d="M22.5 6.5a1 1 0 110 2v-2zM.793 8.207a1 1 0 010-1.414L7.157.429A1 1 0 018.57 1.843L2.914 7.5l5.657 5.657a1 1 0 11-1.414 1.414L.793 8.207zM22.5 8.5h-21v-2h21v2z" fill="#fff"/></symbol><symbol fill="none" id="sprite-slider-arrow-right" viewBox="0 0 23 16"><title>slider-arrow-right</title><path d="M1 7a1 1 0 000 2V7zm21.707 1.707a1 1 0 000-1.414L16.343.929a1 1 0 10-1.414 1.414L20.586 8l-5.657 5.657a1 1 0 001.414 1.414l6.364-6.364zM1 9h21V7H1v2z" fill="#fff"/></symbol><symbol fill="none" id="sprite-works" viewBox="0 0 20 20"><title>works</title><path d="M13.383 10.908l4.692 4.659-2.767 2.733-4.658-4.658v-.767l1.967-1.967h.766zm.759-2.108l-.809-.8-3.991 4v1.642L4.65 18.333l-2.733-2.766 4.658-4.659h1.642l.65-.65-3.2-3.208H4.583L2.242 4.683 4.425 2.5l2.333 2.333v1.092L10 9.125l2.217-2.217-.8-.841L12.5 4.975h-2.217l-.541-.542L12.5 1.667l.55.55v2.216l1.092-1.1 2.733 2.734a2.36 2.36 0 010 3.316l-1.642-1.675L14.142 8.8z" fill="#00CC52"/></symbol></svg>