<svg width="20" height="20" viewBox="0 0 20 20" fill="none" xmlns="http://www.w3.org/2000/svg">
<path d="M12.7077 15.4135C12.9369 15.4135 13.1243 15.226 13.1243 14.9969V13.7472C13.1243 13.518 12.9369 13.3306 12.7077 13.3306C12.4786 13.3306 12.2911 13.518 12.2911 13.7472V14.9969C12.2911 15.226 12.4786 15.4135 12.7077 15.4135Z" fill="white"/>
<path d="M7.2922 15.4135C7.52134 15.4135 7.7088 15.226 7.7088 14.9969V13.7472C7.7088 13.518 7.52134 13.3306 7.2922 13.3306C7.06307 13.3306 6.87561 13.518 6.87561 13.7472V14.9969C6.87561 15.226 7.06307 15.4135 7.2922 15.4135Z" fill="white"/>
<path d="M19.373 10.4145H12.7078V10.352C12.7078 9.68965 12.212 9.23557 11.458 9.17726V8.33162H15.2239C15.9029 8.33162 16.457 7.78173 16.457 7.09856V1.23306C16.457 0.549885 15.9071 0 15.2239 0H4.77605C4.09288 0 3.54299 0.549885 3.54299 1.23306V7.10266C3.54299 7.78169 4.09288 8.33572 4.77605 8.33572H8.54195V9.18136C7.78792 9.23967 7.29221 9.69376 7.29221 10.3561V10.4186H0.62692C0.397788 10.4186 0.210327 10.6061 0.210327 10.8352C0.210327 11.0643 0.397788 11.2518 0.62692 11.2518H1.04351V18.3337C1.04351 18.5628 1.23097 18.7503 1.4601 18.7503H2.29325V19.5834C2.29325 19.8125 2.48071 20 2.70984 20C2.93898 20 3.12644 19.8125 3.12644 19.5834V18.7503H16.8736V19.5834C16.8736 19.8125 17.061 20 17.2902 20C17.5193 20 17.7067 19.8125 17.7067 19.5834V18.7503H18.5399C18.769 18.7503 18.9565 18.5628 18.9565 18.3337V11.2476H19.3731C19.6022 11.2476 19.7897 11.0602 19.7897 10.8311C19.7896 10.602 19.6021 10.4145 19.373 10.4145ZM4.77605 7.50261C4.55528 7.49843 4.37614 7.31933 4.37614 7.09852V1.23306C4.37614 1.01229 4.55528 0.833146 4.77605 0.833146H15.228C15.4488 0.833146 15.628 1.01229 15.628 1.23306V7.10266C15.628 7.32343 15.4488 7.50257 15.228 7.50257H4.77605V7.50261ZM10.6248 8.33158V9.16473H9.37509V8.33158H10.6248ZM8.70441 9.99791H11.2914C11.508 9.99791 11.8746 10.0437 11.8746 10.352V10.4145H8.12535L8.12117 10.352C8.12121 10.0437 8.48778 9.99791 8.70441 9.99791ZM9.37509 17.9129H1.87666V11.2476H9.37509V17.9129ZM18.1233 17.9129H10.2083V11.2476H18.1233V17.9129H18.1233Z" fill="white"/>
<path d="M13.9741 1.24976H6.02579C5.34261 1.24976 4.79272 1.79964 4.79272 2.48282V5.85293C4.79272 6.53197 5.34261 7.086 6.02579 7.086H13.9783C14.6573 7.08182 15.2072 6.53193 15.2072 5.84876V2.48282C15.2072 1.80382 14.6573 1.24976 13.9741 1.24976ZM14.3782 5.85297C14.3782 6.07375 14.1991 6.25289 13.9783 6.25289H6.02579C5.80501 6.24871 5.62587 6.06961 5.62587 5.84879V2.48282C5.62587 2.26204 5.80501 2.0829 6.02579 2.0829H13.9783C14.1991 2.0829 14.3782 2.26204 14.3782 2.48282V5.85297Z" fill="white"/>
</svg>
