<svg width="20" height="20" viewBox="0 0 20 20" fill="none" xmlns="http://www.w3.org/2000/svg">
<path d="M15.9164 0.955221C15.8293 0.851682 15.7206 0.768464 15.598 0.711416C15.4753 0.654367 15.3417 0.624871 15.2064 0.625002H9.90128C9.68019 0.624603 9.46611 0.702548 9.29703 0.845003C9.12795 0.987459 9.01482 1.18521 8.9777 1.40316L7.54938 9.6875H5C4.66859 9.68788 4.35087 9.81969 4.11653 10.054C3.88219 10.2884 3.75038 10.6061 3.75 10.9375V19.0625C3.75 19.1454 3.78293 19.2249 3.84153 19.2835C3.90014 19.3421 3.97962 19.375 4.0625 19.375H5C5.07588 19.375 5.14917 19.3474 5.20618 19.2973C5.2632 19.2473 5.30006 19.1782 5.30987 19.1029L6.21188 12.1875H9.0625V19.0625C9.0625 19.1454 9.09543 19.2249 9.15403 19.2835C9.21264 19.3421 9.29212 19.375 9.375 19.375H10.3125C10.3884 19.375 10.4617 19.3474 10.5187 19.2973C10.5757 19.2473 10.6126 19.1782 10.6224 19.1029L11.5244 12.1875H12.2256L13.1276 19.1029C13.1374 19.1782 13.1743 19.2473 13.2313 19.2973C13.2883 19.3474 13.3616 19.375 13.4375 19.375H14.375C14.4579 19.375 14.5374 19.3421 14.596 19.2835C14.6546 19.2249 14.6875 19.1454 14.6875 19.0625L14.6876 10.0268L16.1213 1.71131V1.71126C16.1444 1.57792 16.1381 1.44113 16.1027 1.31052C16.0672 1.1799 16.0037 1.05863 15.9164 0.955221ZM9.59362 1.50927C9.60598 1.43666 9.64366 1.37078 9.69998 1.32331C9.75631 1.27585 9.82762 1.24988 9.90128 1.25H14.3286C14.3239 1.26375 14.3201 1.27798 14.316 1.29205C14.3136 1.30052 14.3107 1.3088 14.3085 1.31738C14.3017 1.34305 14.2959 1.36913 14.2913 1.39572L12.8619 9.6875H8.18359L9.59362 1.50927ZM4.375 10.9375C4.37519 10.7718 4.4411 10.6129 4.55827 10.4958C4.67544 10.3786 4.8343 10.3127 5 10.3125H9.375C9.5407 10.3127 9.69956 10.3786 9.81673 10.4958C9.9339 10.6129 9.99981 10.7718 10 10.9375V11.5625H4.375V10.9375ZM4.72561 18.75H4.375V12.1875H5.58159L4.72561 18.75ZM10.0381 18.75H9.6875V12.1875H10.8941L10.0381 18.75ZM14.0625 18.75H13.7119L12.8559 12.1875H14.0625V18.75ZM15.5054 1.60517V1.60511L14.0672 9.9469C14.0641 9.96444 14.0626 9.9822 14.0626 10V11.5625H10.625V10.9375C10.6252 10.718 10.5671 10.5023 10.4568 10.3125H13.1251C13.1988 10.3125 13.2701 10.2865 13.3265 10.2391C13.3829 10.1916 13.4206 10.1257 13.4331 10.0531L14.9073 1.50181C14.9193 1.43125 14.956 1.36724 15.0107 1.32115C15.0655 1.27505 15.1348 1.24984 15.2064 1.25C15.2506 1.25001 15.2943 1.25969 15.3344 1.27835C15.3745 1.29701 15.41 1.32421 15.4385 1.35804C15.467 1.39187 15.4877 1.43152 15.4993 1.47421C15.5108 1.51689 15.5129 1.56159 15.5054 1.60517Z" fill="white"/>
</svg>
