<svg width="20" height="20" viewBox="0 0 20 20" fill="none" xmlns="http://www.w3.org/2000/svg">
<g clip-path="url(#clip0)">
<path d="M9.98937 18.3333C9.96103 18.3333 9.93186 18.3308 9.90353 18.3241L1.9927 16.6574C1.8002 16.6166 1.66187 16.4466 1.66187 16.2499V8.74993C1.66187 8.51993 1.84853 8.33326 2.07853 8.33326C2.30853 8.33326 2.4952 8.51993 2.4952 8.74993V15.9116L9.5727 17.4033V2.15576C9.55103 2.0291 9.58853 1.89493 9.68686 1.7966C9.80686 1.6766 9.98937 1.63826 10.1452 1.70243C10.3002 1.7666 10.406 1.91493 10.406 2.08326V17.9166C10.406 18.0424 10.3494 18.1608 10.2519 18.2399C10.1769 18.3008 10.0844 18.3333 9.98937 18.3333Z" fill="white"/>
<path d="M10.0058 18.3333C9.91078 18.3333 9.81828 18.3008 9.74328 18.24C9.64578 18.1608 9.58911 18.0425 9.58911 17.9167V2.29167C9.58911 2.06167 9.77578 1.875 10.0058 1.875C10.2358 1.875 10.4224 2.06167 10.4224 2.29167V17.4033L17.4999 15.9117V8.75C17.4999 8.52 17.6866 8.33333 17.9166 8.33333C18.1466 8.33333 18.3333 8.52 18.3333 8.75V16.25C18.3333 16.4467 18.1949 16.6167 18.0024 16.6575L10.0916 18.3242C10.0633 18.3308 10.0341 18.3333 10.0058 18.3333Z" fill="white"/>
<path d="M19.5834 9.16672H12.915C12.7492 9.16672 12.6 9.06839 12.5334 8.91672L9.62087 2.25006C9.55837 2.10756 9.58087 1.94089 9.67921 1.82006C9.77837 1.69922 9.93671 1.64256 10.0884 1.67506L18.0025 3.34172C18.1475 3.37256 18.265 3.47756 18.3117 3.61756L19.9784 8.61756C20.0209 8.74422 19.9992 8.88422 19.9217 8.99339C19.8434 9.10256 19.7175 9.16672 19.5834 9.16672ZM13.1875 8.33339H19.005L17.5967 4.10839L10.7084 2.65756L13.1875 8.33339Z" fill="white"/>
<path d="M7.08483 9.16662H0.416497C0.282331 9.16662 0.156497 9.10245 0.078164 8.99328C-0.000169303 8.88495 -0.021836 8.74495 0.0214974 8.61745L1.68816 3.61745C1.73483 3.47745 1.85233 3.37245 1.99733 3.34162L9.9115 1.67495C10.064 1.64162 10.2223 1.69829 10.3207 1.81995C10.419 1.94079 10.4423 2.10662 10.379 2.24995L7.4665 8.91662C7.40066 9.06828 7.25066 9.16662 7.08483 9.16662ZM0.994831 8.33328H6.81233L9.2915 2.65745L2.40316 4.10828L0.994831 8.33328Z" fill="white"/>
</g>
<defs>
<clipPath id="clip0">
<rect width="20" height="20" fill="white"/>
</clipPath>
</defs>
</svg>
