<svg width="20" height="20" viewBox="0 0 20 20" fill="none" xmlns="http://www.w3.org/2000/svg">
<path d="M16.25 0.3125H3.75C3.66712 0.3125 3.58763 0.345424 3.52903 0.404029C3.47042 0.462634 3.4375 0.54212 3.4375 0.625V1.5625C3.4375 1.64538 3.47042 1.72487 3.52903 1.78347C3.58763 1.84208 3.66712 1.875 3.75 1.875H4.0625V17.8125C4.0625 17.8954 4.09542 17.9749 4.15403 18.0335C4.21263 18.0921 4.29212 18.125 4.375 18.125V19.375C4.375 19.4579 4.40792 19.5374 4.46653 19.596C4.52513 19.6546 4.60462 19.6875 4.6875 19.6875H15.3125C15.3954 19.6875 15.4749 19.6546 15.5335 19.596C15.5921 19.5374 15.625 19.4579 15.625 19.375V18.125C15.7079 18.125 15.7874 18.0921 15.846 18.0335C15.9046 17.9749 15.9375 17.8954 15.9375 17.8125V1.875H16.25C16.3329 1.875 16.4124 1.84208 16.471 1.78347C16.5296 1.72487 16.5625 1.64538 16.5625 1.5625V0.625C16.5625 0.54212 16.5296 0.462634 16.471 0.404029C16.4124 0.345424 16.3329 0.3125 16.25 0.3125ZM15 19.0625H5V18.125H15V19.0625ZM4.6875 17.5V1.875H9.6875V17.5H4.6875ZM15.3125 17.5H10.3125V1.875H15.3125V17.5ZM15.9375 1.25H4.0625V0.9375H15.9375V1.25Z" fill="white"/>
<path d="M9.0625 8.75C8.97962 8.75 8.90013 8.78292 8.84153 8.84153C8.78292 8.90013 8.75 8.97962 8.75 9.0625V10.9375C8.75 11.0204 8.78292 11.0999 8.84153 11.1585C8.90013 11.2171 8.97962 11.25 9.0625 11.25C9.14538 11.25 9.22487 11.2171 9.28347 11.1585C9.34208 11.0999 9.375 11.0204 9.375 10.9375V9.0625C9.375 8.97962 9.34208 8.90013 9.28347 8.84153C9.22487 8.78292 9.14538 8.75 9.0625 8.75Z" fill="white"/>
<path d="M10.9375 11.25C11.0204 11.25 11.0999 11.2171 11.1585 11.1585C11.2171 11.0999 11.25 11.0204 11.25 10.9375V9.0625C11.25 8.97962 11.2171 8.90013 11.1585 8.84153C11.0999 8.78292 11.0204 8.75 10.9375 8.75C10.8546 8.75 10.7751 8.78292 10.7165 8.84153C10.6579 8.90013 10.625 8.97962 10.625 9.0625V10.9375C10.625 11.0204 10.6579 11.0999 10.7165 11.1585C10.7751 11.2171 10.8546 11.25 10.9375 11.25Z" fill="white"/>
</svg>
