<svg width="20" height="20" viewBox="0 0 20 20" fill="none" xmlns="http://www.w3.org/2000/svg">
<path d="M14.3188 5.66313C14.3876 6.00063 14.1688 6.32563 13.8313 6.39438L6.29384 7.88813L13.8313 9.38813C14.0751 9.43813 14.2688 9.63188 14.3188 9.88188C14.3876 10.2194 14.1688 10.5444 13.8313 10.6131L6.29384 12.1131L13.8313 13.6069C14.0751 13.6569 14.2688 13.8506 14.3188 14.1006C14.3876 14.4381 14.1688 14.7631 13.8313 14.8319L6.29384 16.3256L14.0126 17.8631C14.2251 17.9006 14.3751 18.0881 14.3751 18.3006C14.3751 18.5506 14.1751 18.7506 13.9251 18.7506H5.66884V18.1256H12.1313L6.16884 16.9444C5.92509 16.8944 5.73134 16.7006 5.68134 16.4506C5.61259 16.1131 5.83134 15.7819 6.16884 15.7131L13.7063 14.2194L6.16884 12.725C5.92509 12.675 5.73134 12.4813 5.68134 12.2313C5.61259 11.8938 5.83134 11.5625 6.16884 11.4938L13.7063 10L6.16884 8.50625C5.92509 8.45625 5.73134 8.2625 5.68134 8.0125C5.61259 7.675 5.83134 7.34375 6.16884 7.275L13.7063 5.78125L6.16884 4.2875C5.92509 4.2375 5.73134 4.04375 5.68134 3.79375C5.61259 3.45625 5.83134 3.125 6.16884 3.05687L12.1313 1.875H5.66884V1.25H13.9251C14.1376 1.25 14.3251 1.4 14.3688 1.6125C14.4126 1.85625 14.2563 2.0875 14.0126 2.1375L6.29384 3.675L13.8313 5.16875C14.0751 5.21938 14.2688 5.41313 14.3188 5.66313Z" fill="white"/>
</svg>
