<svg width="20" height="20" viewBox="0 0 20 20" fill="none" xmlns="http://www.w3.org/2000/svg">
<path d="M13.1172 10L19.3539 16.2345C19.7676 16.6482 20 17.2092 20 17.7942C20 18.3792 19.7676 18.9403 19.3539 19.3539C18.9403 19.7676 18.3792 20 17.7942 20C17.2092 20 16.6482 19.7676 16.2345 19.3539L10 13.1172L3.76551 19.3539C3.35184 19.7676 2.7908 20 2.20578 20C1.62077 20 1.05972 19.7676 0.646059 19.3539C0.232394 18.9403 0 18.3792 0 17.7942C0 17.5045 0.0570543 17.2177 0.167905 16.9501C0.278756 16.6825 0.441233 16.4393 0.646059 16.2345L6.88275 10L0.646059 3.76551C0.232394 3.35184 0 2.7908 0 2.20578C0 1.91612 0.0570543 1.62929 0.167905 1.36167C0.278756 1.09405 0.441233 0.850885 0.646059 0.646059C0.850885 0.441233 1.09405 0.278756 1.36167 0.167905C1.62929 0.0570543 1.91612 0 2.20578 0C2.7908 0 3.35184 0.232394 3.76551 0.646059L10 6.88275L16.2345 0.646059C16.6482 0.232394 17.2092 0 17.7942 0C18.3792 0 18.9403 0.232394 19.3539 0.646059C19.7676 1.05972 20 1.62077 20 2.20578C20 2.7908 19.7676 3.35184 19.3539 3.76551L13.1172 10Z" fill="#FEB618"/>
</svg>
