<svg width="20" height="20" viewBox="0 0 20 20" fill="none" xmlns="http://www.w3.org/2000/svg">
<g clip-path="url(#clip0)">
<path d="M19.5556 4.94693C19.5556 4.92579 19.5556 4.92579 19.5556 4.90465C19.5344 4.86237 19.5344 4.82009 19.5133 4.77781V4.75666C19.4922 4.71438 19.4499 4.6721 19.4287 4.65096L19.4076 4.62982C19.3865 4.60868 19.3442 4.58754 19.323 4.5664L19.3019 4.54526H19.2808L19.2596 4.52412L10.2748 0.0634222C10.1057 -0.0211407 9.89427 -0.0211407 9.704 0.0634222L6.68087 1.56441L15.708 6.19424L15.7291 6.21538C15.7502 6.21538 15.7502 6.23652 15.7714 6.23652C15.7925 6.25766 15.7925 6.2788 15.8137 6.29994C15.8137 6.32108 15.8137 6.32108 15.8137 6.34222V6.36336V11.268C15.8137 11.3526 15.7714 11.416 15.708 11.4583L13.8899 12.4096C13.7842 12.473 13.6573 12.4308 13.5939 12.325C13.5728 12.3039 13.5728 12.2616 13.5728 12.2193V7.4204L4.43996 2.70601L4.41882 2.68487L0.761469 4.50298L0.740329 4.52412H0.719188L0.698047 4.54526C0.676907 4.5664 0.634625 4.58754 0.613484 4.60868L0.592344 4.62982C0.550062 4.6721 0.528921 4.71438 0.48664 4.75666V4.77781C0.465499 4.82009 0.444359 4.86237 0.444359 4.90465C0.444359 4.92579 0.444359 4.92579 0.444359 4.94693C0.444359 4.98921 0.423218 5.01035 0.423218 5.05264V5.07378V14.9254C0.423218 15.1579 0.550062 15.3905 0.78261 15.4962L9.68286 19.9357C9.8097 19.9991 9.95769 20.0203 10.1057 19.978L10.148 19.9569C10.1902 19.9569 10.2114 19.9357 10.2537 19.9146L19.2173 15.475C19.4287 15.3693 19.5767 15.1579 19.5767 14.9042V5.07378V5.05264C19.5556 5.01035 19.5556 4.98921 19.5556 4.94693Z" fill="#00CC52"/>
</g>
<defs>
<clipPath id="clip0">
<rect width="20" height="20" fill="white"/>
</clipPath>
</defs>
</svg>
