<svg width="20" height="20" viewBox="0 0 20 20" fill="none" xmlns="http://www.w3.org/2000/svg">
<path d="M19.375 0H13.125C12.8014 0 12.5391 0.262344 12.5391 0.585938V1.79688H19.9609V0.585938C19.9609 0.262344 19.6986 0 19.375 0Z" fill="#00CC52"/>
<path d="M9.41406 8.90625H3.75C3.42641 8.90625 3.16406 9.16859 3.16406 9.49219V10.7031H9.41406V8.90625Z" fill="#00CC52"/>
<path d="M6.28906 11.875H0.625C0.301406 11.875 0.0390625 12.1373 0.0390625 12.4609V13.6719H6.28906V11.875Z" fill="#00CC52"/>
<path d="M12.5391 5.9375H6.875C6.55141 5.9375 6.28906 6.19984 6.28906 6.52344V7.73438H12.5391V5.9375Z" fill="#00CC52"/>
<path d="M15.6641 2.96875H10C9.67641 2.96875 9.41406 3.23109 9.41406 3.55469V4.76562H15.6641V2.96875Z" fill="#00CC52"/>
<path d="M16.8359 5.35156C16.8359 5.67516 16.5736 5.9375 16.25 5.9375H13.7109V8.32031C13.7109 8.64391 13.4486 8.90625 13.125 8.90625H10.5859V11.2891C10.5859 11.6127 10.3236 11.875 10 11.875H7.46094V14.2578C7.46094 14.5814 7.19859 14.8438 6.875 14.8438H0.0390625V19.4141C0.0390625 19.7377 0.301406 20 0.625 20H6.875C6.99773 20 7.1173 19.9615 7.21699 19.8899L19.717 10.9055C19.8702 10.7954 19.9609 10.6183 19.9609 10.4297V2.96875H16.8359V5.35156Z" fill="#00CC52"/>
</svg>
