<svg width="40" height="40" viewBox="0 0 40 40" fill="none" xmlns="http://www.w3.org/2000/svg">
<g clip-path="url(#clip0)">
<path d="M12.7599 31.1125C10.4536 31.1125 8.58398 32.9822 8.58398 35.2885C8.58398 37.5948 10.4536 39.4644 12.7599 39.4644C15.0663 39.4644 16.9358 37.5947 16.9358 35.2885C16.9359 32.9822 15.0663 31.1125 12.7599 31.1125ZM12.7599 37.6085C11.4786 37.6085 10.44 36.5698 10.44 35.2886C10.44 34.0073 11.4786 32.9686 12.7599 32.9686C14.0412 32.9686 15.0799 34.0073 15.0799 35.2886C15.0799 36.5698 14.0412 37.6085 12.7599 37.6085Z" fill="#00CC52"/>
<path d="M30.3917 31.1125C28.0854 31.1125 26.2158 32.9822 26.2158 35.2885C26.2158 37.5948 28.0855 39.4644 30.3917 39.4644C32.698 39.4644 34.5677 37.5947 34.5677 35.2885C34.5677 32.9822 32.6981 31.1125 30.3917 31.1125ZM30.3917 37.6085C29.1105 37.6085 28.0718 36.5698 28.0718 35.2886C28.0718 34.0073 29.1105 32.9686 30.3917 32.9686C31.673 32.9686 32.7117 34.0073 32.7117 35.2886C32.7118 36.5698 31.673 37.6085 30.3917 37.6085Z" fill="#00CC52"/>
<path d="M39.8108 6.7529C39.6176 6.54179 39.3532 6.40964 39.0685 6.38167L8.86235 5.96407L8.02716 3.41207C7.43878 1.70608 5.84124 0.554373 4.03676 0.535278H0.927994C0.415461 0.535278 0 0.95074 0 1.46327C0 1.9758 0.415461 2.39127 0.927994 2.39127H4.03676C5.04575 2.41356 5.93422 3.06144 6.26398 4.01528L12.1567 21.7863L11.6928 22.8535C11.1753 24.188 11.3307 25.69 12.1104 26.8902C12.8826 28.0691 14.1817 28.7967 15.5904 28.839H33.6398C34.1524 28.839 34.5678 28.4236 34.5678 27.911C34.5678 27.3985 34.1524 26.9831 33.6398 26.9831H15.5903C14.7948 26.9632 14.0625 26.5447 13.6415 25.8694C13.2251 25.2025 13.1396 24.3808 13.4095 23.6422L13.7807 22.807L33.315 20.7654C35.4607 20.5291 37.2257 18.9685 37.723 16.8678L39.9502 7.54155C40.0505 7.27298 39.9972 6.97093 39.8108 6.7529ZM35.9133 16.4503C35.6121 17.8026 34.464 18.8 33.083 18.9095L13.7807 20.9047L9.46555 7.82006L37.9085 8.23765L35.9133 16.4503Z" fill="#00CC52"/>
</g>
<defs>
<clipPath id="clip0">
<rect width="40" height="40" fill="white"/>
</clipPath>
</defs>
</svg>
