<svg width="40" height="40" viewBox="0 0 40 40" fill="none" xmlns="http://www.w3.org/2000/svg">
<g clip-path="url(#clip0)">
<path d="M37.9487 6.66675H2.05133C0.923047 6.66675 0 7.58979 0 8.718V31.2821C0 32.4103 0.923047 33.3335 2.05133 33.3335H37.9487C39.0769 33.3335 40.0001 32.4104 40.0001 31.2821V8.718C40 7.58979 39.077 6.66675 37.9487 6.66675ZM37.1789 8.20511L21.18 20.2053C20.8923 20.4242 20.4508 20.5611 19.9999 20.5591C19.5491 20.5611 19.1077 20.4242 18.8199 20.2053L2.82102 8.20511H37.1789ZM28.6328 20.9971L37.3508 31.7664C37.3595 31.7771 37.3702 31.7853 37.3795 31.7951H2.62047C2.62969 31.7849 2.64047 31.7771 2.64922 31.7664L11.3672 20.9971C11.6343 20.6668 11.5837 20.1827 11.2528 19.915C10.9226 19.6478 10.4384 19.6985 10.1713 20.0288L1.53844 30.6929V9.16667L17.8973 21.4359C18.5123 21.8939 19.2604 22.0954 19.9998 22.0975C20.7383 22.0959 21.487 21.8943 22.1023 21.4359L38.4613 9.16667V30.6928L29.8287 20.0288C29.5615 19.6985 29.0769 19.6478 28.7471 19.915C28.4163 20.1821 28.3655 20.6668 28.6328 20.9971Z" fill="#00CC52"/>
</g>
<defs>
<clipPath id="clip0">
<rect width="40" height="40" fill="white"/>
</clipPath>
</defs>
</svg>
