<svg width="40" height="40" viewBox="0 0 40 40" fill="none" xmlns="http://www.w3.org/2000/svg">
<path d="M6.66699 9.33337C5.56434 9.33337 4.66699 10.2307 4.66699 11.3334V16.6667C4.66699 17.7694 5.56434 18.6667 6.66699 18.6667C7.76965 18.6667 8.66699 17.7694 8.66699 16.6667V11.3334C8.66699 10.2307 7.76965 9.33337 6.66699 9.33337ZM7.33371 16.6667C7.33371 17.0346 7.03504 17.3333 6.66707 17.3333C6.2991 17.3333 6.00043 17.0346 6.00043 16.6667V11.3333C6.00043 10.9653 6.2991 10.6667 6.66707 10.6667C7.03504 10.6667 7.33371 10.9653 7.33371 11.3333V16.6667Z" fill="#00CC52"/>
<path d="M33.334 9.33337C32.2313 9.33337 31.334 10.2307 31.334 11.3334V16.6667C31.334 17.7694 32.2313 18.6667 33.334 18.6667C34.4366 18.6667 35.334 17.7694 35.334 16.6667V11.3334C35.334 10.2307 34.4366 9.33337 33.334 9.33337ZM34.0006 16.6667C34.0006 17.0346 33.702 17.3333 33.334 17.3333C32.966 17.3333 32.6673 17.0346 32.6673 16.6667V11.3333C32.6673 10.9653 32.966 10.6667 33.334 10.6667C33.702 10.6667 34.0006 10.9653 34.0006 11.3333V16.6667Z" fill="#00CC52"/>
<path d="M33.3724 9.95734C31.6004 4.09469 26.1017 0 20.0004 0C13.8991 0 8.40038 4.09469 6.62835 9.95734C6.52171 10.3094 6.72101 10.682 7.07367 10.788C7.42703 10.8954 7.79835 10.6954 7.90499 10.3427C9.50835 5.03867 14.4817 1.33336 20.0004 1.33336C25.5191 1.33336 30.4924 5.03867 32.0957 10.3427C32.183 10.6314 32.4477 10.8167 32.7337 10.8167C32.7977 10.8167 32.8623 10.8073 32.927 10.788C33.2797 10.682 33.4791 10.3093 33.3724 9.95734Z" fill="#00CC52"/>
<path d="M33.3336 17.3331C32.9657 17.3331 32.667 17.6311 32.667 17.9998C32.667 19.8377 31.1717 21.3331 29.3336 21.3331C28.9657 21.3331 28.667 21.6311 28.667 21.9998C28.667 22.3684 28.9657 22.6664 29.3336 22.6664C31.907 22.6664 34.0003 20.5724 34.0003 17.9998C34.0003 17.6311 33.7016 17.3331 33.3336 17.3331Z" fill="#00CC52"/>
<path d="M28 19.3334H24C22.8973 19.3334 22 20.2307 22 21.3334V22.6667C22 23.7694 22.8973 24.6667 24 24.6667H28C29.1027 24.6667 30 23.7694 30 22.6667V21.3334C30 20.2307 29.1027 19.3334 28 19.3334ZM28.6666 22.6667C28.6666 23.0346 28.368 23.3333 28 23.3333H24C23.632 23.3333 23.3334 23.0346 23.3334 22.6667V21.3333C23.3334 20.9653 23.632 20.6667 24 20.6667H28C28.368 20.6667 28.6666 20.9653 28.6666 21.3333V22.6667Z" fill="#00CC52"/>
<path d="M20.0006 3.33337C14.1186 3.33337 9.33398 8.11869 9.33398 14C9.33398 19.8813 14.1186 24.6667 20.0006 24.6667C21.0886 24.6667 22.1659 24.502 23.2027 24.1767C23.4173 24.1087 23.584 23.9374 23.6447 23.7206C23.7054 23.5033 23.6527 23.2706 23.504 23.1006C23.4266 23.0127 23.334 22.8653 23.334 22.6667V21.3333C23.334 20.9653 23.6327 20.6667 24.0006 20.6667H27.9866C28.1966 20.6667 28.394 20.5687 28.52 20.4013C29.9247 18.534 30.6673 16.3206 30.6673 14C30.6673 8.11869 25.8827 3.33337 20.0006 3.33337ZM27.6473 19.3334H24.0006C22.898 19.3334 22.0006 20.2307 22.0006 21.3334V22.6667C22.0006 22.8154 22.018 22.9627 22.0513 23.106C21.3793 23.2574 20.6927 23.3334 20.0006 23.3334C14.854 23.3334 10.6673 19.1467 10.6673 14C10.6673 8.8533 14.854 4.66666 20.0006 4.66666C25.1473 4.66666 29.334 8.85337 29.334 14C29.334 15.92 28.752 17.7574 27.6473 19.3334Z" fill="#00CC52"/>
<path d="M26.925 25.9999H13.0737C8.80574 25.9999 5.33301 29.4725 5.33301 33.7406V39.3332C5.33301 39.7019 5.63168 39.9999 5.99965 39.9999H33.9996C34.3676 39.9999 34.6663 39.7019 34.6663 39.3332V33.7406C34.6664 29.4725 31.1937 25.9999 26.925 25.9999ZM33.3331 38.6665H6.66637V33.7405C6.66637 30.2078 9.54105 27.3332 13.0737 27.3332H26.9257C30.4584 27.3332 33.3331 30.2071 33.3331 33.7405V38.6665Z" fill="#00CC52"/>
<path d="M11.3336 34.0001C10.9657 34.0001 10.667 34.2981 10.667 34.6668V39.3334C10.667 39.7021 10.9657 40.0001 11.3336 40.0001C11.7016 40.0001 12.0003 39.7021 12.0003 39.3334V34.6668C12.0003 34.2981 11.7016 34.0001 11.3336 34.0001Z" fill="#00CC52"/>
<path d="M29.3336 34.0001C28.9657 34.0001 28.667 34.2981 28.667 34.6668V39.3334C28.667 39.7021 28.9657 40.0001 29.3336 40.0001C29.7016 40.0001 30.0003 39.7021 30.0003 39.3334V34.6668C30.0003 34.2981 29.7016 34.0001 29.3336 34.0001Z" fill="#00CC52"/>
</svg>
