<svg width="40" height="40" viewBox="0 0 40 40" fill="none" xmlns="http://www.w3.org/2000/svg">
<path d="M23.3333 2H16.6666C16.2987 2 16 2.29867 16 2.66664C16 3.03461 16.2987 3.33328 16.6666 3.33328H23.3333C23.7013 3.33328 23.9999 3.03461 23.9999 2.66664C23.9999 2.29867 23.7013 2 23.3333 2Z" fill="#00CC52"/>
<path d="M28.0003 2H27.3336C26.9657 2 26.667 2.29867 26.667 2.66664C26.667 3.03461 26.9657 3.33328 27.3336 3.33328H28.0003C28.3682 3.33328 28.6669 3.03461 28.6669 2.66664C28.6669 2.29867 28.3682 2 28.0003 2Z" fill="#00CC52"/>
<path d="M20.8276 33.9999H19.1723C18.1583 33.9999 17.333 34.8252 17.333 35.8392V36.1612C17.333 37.1752 18.1583 37.9999 19.1717 37.9999H20.827C21.841 37.9999 22.6663 37.1752 22.6663 36.1612V35.8392C22.6663 34.8252 21.841 33.9999 20.8276 33.9999ZM21.333 36.1612C21.333 36.4399 21.1064 36.6665 20.8277 36.6665H19.1723C18.893 36.6665 18.6663 36.4399 18.6663 36.1612V35.8392C18.6663 35.5599 18.8929 35.3332 19.1723 35.3332H20.827C21.1064 35.3332 21.333 35.5598 21.333 35.8392V36.1612Z" fill="#00CC52"/>
<path d="M28.9243 0H11.077C9.74832 0 8.66699 1.08133 8.66699 2.41V37.59C8.66699 38.9187 9.74832 40 11.077 40H28.9236C30.2523 40 31.3336 38.9187 31.3336 37.5907V2.41C31.3337 1.08133 30.2524 0 28.9243 0ZM30.0004 37.59C30.0004 38.1834 29.5177 38.6666 28.9243 38.6666H11.077C10.483 38.6666 10.0004 38.1833 10.0004 37.5906V2.41C10.0004 1.81664 10.483 1.33336 11.077 1.33336H28.9236C29.5176 1.33336 30.0003 1.81672 30.0003 2.41V37.59H30.0004Z" fill="#00CC52"/>
<path d="M30.6669 3.99988H9.33363C8.96566 3.99988 8.66699 4.29855 8.66699 4.66652V32.6665C8.66699 33.0345 8.96566 33.3332 9.33363 33.3332H30.667C31.035 33.3332 31.3336 33.0345 31.3336 32.6665V4.66652C31.3336 4.29855 31.035 3.99988 30.6669 3.99988ZM30.0003 31.9999H10.0003V5.33324H30.0003V31.9999Z" fill="#00CC52"/>
</svg>
