<svg width="32" height="28" viewBox="0 0 32 28" fill="none" xmlns="http://www.w3.org/2000/svg">
<path d="M23.5 0C21.7636 0 20.1716 0.54538 18.7683 1.62103C17.423 2.65226 16.5273 3.96572 16 4.92081C15.4727 3.96565 14.577 2.65226 13.2317 1.62103C11.8284 0.54538 10.2364 0 8.5 0C3.65425 0 0 3.92849 0 9.13804C0 14.7662 4.55894 18.6168 11.4606 24.4462C12.6326 25.4362 13.961 26.5583 15.3418 27.7551C15.5238 27.913 15.7575 28 16 28C16.2425 28 16.4763 27.913 16.6583 27.7551C18.0391 26.5582 19.3675 25.4361 20.5402 24.4456C27.4411 18.6168 32 14.7662 32 9.13804C32 3.92849 28.3457 0 23.5 0Z" fill="#00CC52"/>
</svg>
