<svg width="289" height="41" viewBox="0 0 289 41" fill="none" xmlns="http://www.w3.org/2000/svg">
<path d="M120.902 9.26544V32.4712H114.537V29.8191C113.785 30.8357 112.835 31.6093 111.686 32.1397C110.537 32.6701 109.244 32.9353 107.807 32.9353C105.067 32.9353 102.934 32.0623 101.409 30.3164C99.8841 28.5483 99.1217 26.0399 99.1217 22.7911V9.26544H105.686V22.5922C105.686 24.2276 106.05 25.4542 106.78 26.2719C107.531 27.0897 108.548 27.4985 109.829 27.4985C111.178 27.4985 112.261 27.0565 113.078 26.1725C113.918 25.2885 114.338 23.9845 114.338 22.2607V9.26544H120.902ZM125.345 14.5033H131.61V21.1667H138.075V14.5033H144.373V32.4712H138.075V26.1725H131.61V32.4712H125.345V14.5033ZM172.026 14.2049C174.236 14.2049 175.993 14.868 177.297 16.194C178.623 17.5201 179.286 19.5202 179.286 22.1944V32.4712H172.988V23.222C172.988 21.9623 172.745 21.0341 172.258 20.4374C171.794 19.8406 171.131 19.5423 170.269 19.5423C169.319 19.5423 168.557 19.8738 167.982 20.5368C167.407 21.1998 167.12 22.2054 167.12 23.5536V32.4712H160.821V23.222C160.821 20.7689 159.915 19.5423 158.103 19.5423C157.13 19.5423 156.357 19.8738 155.782 20.5368C155.208 21.1998 154.92 22.2054 154.92 23.5536V32.4712H148.622V14.5033H154.622V16.3929C155.285 15.6636 156.07 15.1221 156.976 14.7685C157.904 14.3928 158.91 14.2049 159.992 14.2049C161.252 14.2049 162.379 14.437 163.374 14.9011C164.368 15.3652 165.175 16.0725 165.794 17.0228C166.501 16.1167 167.396 15.4205 168.479 14.9343C169.562 14.4481 170.744 14.2049 172.026 14.2049ZM192.614 27.9626C193.476 27.9626 194.217 27.8411 194.836 27.598C195.476 27.3549 196.117 26.9571 196.758 26.4045L200.04 29.8523C198.339 31.7971 195.797 32.7696 192.416 32.7696C190.316 32.7696 188.471 32.3717 186.879 31.5761C185.288 30.7805 184.05 29.6755 183.166 28.261C182.304 26.8466 181.873 25.2443 181.873 23.4541C181.873 21.686 182.304 20.1058 183.166 18.7135C184.028 17.299 185.211 16.194 186.714 15.3984C188.239 14.6028 189.94 14.2049 191.819 14.2049C193.565 14.2049 195.156 14.5696 196.593 15.2989C198.051 16.0062 199.212 17.0559 200.073 18.4483C200.935 19.8185 201.366 21.454 201.366 23.3546L188.537 25.8078C189.222 27.2444 190.581 27.9626 192.614 27.9626ZM191.852 18.6803C190.769 18.6803 189.885 19.0229 189.2 19.708C188.515 20.371 188.128 21.3324 188.04 22.5922L195.333 21.1667C195.112 20.4152 194.692 19.8185 194.073 19.3765C193.454 18.9124 192.714 18.6803 191.852 18.6803ZM213.984 14.2049C215.951 14.2049 217.663 14.5807 219.122 15.3321C220.581 16.0835 221.697 17.1664 222.47 18.5809C223.266 19.9732 223.664 21.6087 223.664 23.4872C223.664 25.3437 223.299 26.9792 222.57 28.3936C221.84 29.786 220.813 30.8689 219.487 31.6424C218.161 32.3938 216.625 32.7696 214.879 32.7696C212.823 32.7696 211.21 32.1397 210.039 30.8799V38.9025H203.74V23.5536C203.74 21.6971 204.16 20.0616 205 18.6472C205.84 17.2327 207.033 16.1388 208.58 15.3652C210.127 14.5917 211.928 14.2049 213.984 14.2049ZM213.685 27.7637C214.812 27.7637 215.719 27.377 216.404 26.6035C217.111 25.8078 217.465 24.7691 217.465 23.4872C217.465 22.2054 217.111 21.1777 216.404 20.4042C215.719 19.6086 214.812 19.2108 213.685 19.2108C212.558 19.2108 211.652 19.6086 210.967 20.4042C210.282 21.1777 209.939 22.2054 209.939 23.4872C209.939 24.7912 210.271 25.8299 210.934 26.6035C211.619 27.377 212.536 27.7637 213.685 27.7637ZM235.427 33.0016C229.371 33.0016 226.343 30.449 226.343 25.3437V14.5033H232.609V20.2053C233.095 19.8959 233.747 19.6417 234.565 19.4428C235.405 19.2439 236.355 19.1445 237.416 19.1445C239.67 19.1445 241.438 19.708 242.72 20.8352C244.024 21.9402 244.676 23.5867 244.676 25.7747C244.676 28.1395 243.847 29.9407 242.19 31.1783C240.554 32.3938 238.3 33.0016 235.427 33.0016ZM235.394 28.692C236.322 28.692 237.029 28.4489 237.515 27.9626C238.001 27.4543 238.245 26.7692 238.245 25.9073C238.245 25.0675 238.001 24.4265 237.515 23.9845C237.051 23.5204 236.377 23.2883 235.493 23.2883C234.852 23.2883 234.277 23.3988 233.769 23.6199C233.283 23.8409 232.896 24.1392 232.609 24.5149V25.9073C232.609 26.7913 232.841 27.4764 233.305 27.9626C233.791 28.4489 234.487 28.692 235.394 28.692ZM256.942 27.9626C257.804 27.9626 258.544 27.8411 259.163 27.598C259.804 27.3549 260.445 26.9571 261.086 26.4045L264.368 29.8523C262.666 31.7971 260.124 32.7696 256.743 32.7696C254.643 32.7696 252.798 32.3717 251.207 31.5761C249.615 30.7805 248.378 29.6755 247.494 28.261C246.632 26.8466 246.201 25.2443 246.201 23.4541C246.201 21.686 246.632 20.1058 247.494 18.7135C248.356 17.299 249.538 16.194 251.041 15.3984C252.566 14.6028 254.268 14.2049 256.146 14.2049C257.892 14.2049 259.483 14.5696 260.92 15.2989C262.379 16.0062 263.539 17.0559 264.401 18.4483C265.263 19.8185 265.694 21.454 265.694 23.3546L252.864 25.8078C253.549 27.2444 254.909 27.9626 256.942 27.9626ZM256.179 18.6803C255.096 18.6803 254.212 19.0229 253.527 19.708C252.842 20.371 252.455 21.3324 252.367 22.5922L259.66 21.1667C259.439 20.4152 259.019 19.8185 258.4 19.3765C257.782 18.9124 257.041 18.6803 256.179 18.6803ZM278.311 14.2049C280.278 14.2049 281.991 14.5807 283.449 15.3321C284.908 16.0835 286.024 17.1664 286.798 18.5809C287.593 19.9732 287.991 21.6087 287.991 23.4872C287.991 25.3437 287.626 26.9792 286.897 28.3936C286.168 29.786 285.14 30.8689 283.814 31.6424C282.488 32.3938 280.952 32.7696 279.206 32.7696C277.151 32.7696 275.537 32.1397 274.366 30.8799V38.9025H268.067V23.5536C268.067 21.6971 268.487 20.0616 269.327 18.6472C270.167 17.2327 271.36 16.1388 272.907 15.3652C274.454 14.5917 276.256 14.2049 278.311 14.2049ZM278.013 27.7637C279.14 27.7637 280.046 27.377 280.731 26.6035C281.438 25.8078 281.792 24.7691 281.792 23.4872C281.792 22.2054 281.438 21.1777 280.731 20.4042C280.046 19.6086 279.14 19.2108 278.013 19.2108C276.886 19.2108 275.979 19.6086 275.294 20.4042C274.609 21.1777 274.267 22.2054 274.267 23.4872C274.267 24.7912 274.598 25.8299 275.261 26.6035C275.946 27.377 276.863 27.7637 278.013 27.7637Z" fill="#161616"/>
<path d="M28.8624 6.31958H36.5932V22.5902L48.0506 6.31958H54.1346V34.0311H47.6938V17.8001L36.276 34.0311H28.8624V6.31958Z" fill="#FEB618"/>
<path d="M12.2419 27.894C7.19071 23.3302 8.22092 16.9322 1.20874 13.152C-0.426886 12.272 15.7134 8.71872 23.5298 13.7079C29.2405 17.3566 30.7492 24.9458 27.1336 28.6084C23.5181 32.2709 17.2926 32.458 12.2419 27.894Z" fill="#00CC52"/>
<path d="M12.2419 27.894C7.19071 23.3302 8.22092 16.9322 1.20874 13.152C-0.426886 12.272 15.7134 8.71872 23.5298 13.7079C29.2405 17.3566 30.7492 24.9458 27.1336 28.6084C23.5181 32.2709 17.2926 32.458 12.2419 27.894Z" fill="#00CC52"/>
<path d="M12.2419 27.894C7.19071 23.3302 8.22092 16.9322 1.20874 13.152C-0.426886 12.272 15.7134 8.71872 23.5298 13.7079C29.2405 17.3566 30.7492 24.9458 27.1336 28.6084C23.5181 32.2709 17.2926 32.458 12.2419 27.894Z" stroke="#00CC52" stroke-width="1.19684" stroke-linecap="round" stroke-linejoin="round"/>
<path d="M14.5197 17.8015C14.2383 17.6279 14.1509 17.2593 14.3244 16.9781C14.4979 16.697 14.8667 16.6098 15.148 16.7834L14.5197 17.8015ZM15.148 16.7834C18.4464 18.8188 22.0356 22.0502 24.8011 25.2719C26.1852 26.8844 27.3754 28.5086 28.2231 29.9948C29.0593 31.4609 29.6067 32.8684 29.6067 34.0261L28.4096 34.0253C28.4096 33.19 27.9939 32.0084 27.1833 30.5871C26.3841 29.1858 25.2436 27.6244 23.8929 26.0508C21.1885 22.9004 17.6905 19.7582 14.5197 17.8015L15.148 16.7834Z" fill="#00CC52"/>
<path d="M73.2685 34.0311L73.2289 19.344L66.0928 33.8758H62.604L55.468 19.6607V34.0311H48.2526V6.31958H54.7147L64.4674 24.8893L73.9821 6.31958H80.4443L80.5235 34.0311H73.2685Z" fill="#FFB718"/>
</svg>
