<svg width="30" height="30" viewBox="0 0 30 30" fill="none" xmlns="http://www.w3.org/2000/svg">
<g clip-path="url(#clip0)">
<path d="M29.733 8.14651C29.595 7.94711 29.4108 7.78414 29.196 7.67154C28.9813 7.55895 28.7425 7.50009 28.5 7.50001H7.9995L6.2685 3.34501C6.04153 2.79784 5.6572 2.33039 5.16424 2.00192C4.67127 1.67346 4.09187 1.49877 3.4995 1.50001H0V4.50001H3.4995L10.6155 21.5775C10.7295 21.8507 10.9218 22.0841 11.1681 22.2483C11.4145 22.4125 11.7039 22.5 12 22.5H24C24.6255 22.5 25.185 22.1115 25.4055 21.528L29.9055 9.52801C29.9905 9.30094 30.0193 9.05664 29.9892 8.81603C29.9592 8.57543 29.8713 8.34569 29.733 8.14651Z" fill="white"/>
<path d="M12.75 28.5C13.9926 28.5 15 27.4926 15 26.25C15 25.0074 13.9926 24 12.75 24C11.5074 24 10.5 25.0074 10.5 26.25C10.5 27.4926 11.5074 28.5 12.75 28.5Z" fill="white"/>
<path d="M23.25 28.5C24.4926 28.5 25.5 27.4926 25.5 26.25C25.5 25.0074 24.4926 24 23.25 24C22.0074 24 21 25.0074 21 26.25C21 27.4926 22.0074 28.5 23.25 28.5Z" fill="white"/>
</g>
<defs>
<clipPath id="clip0">
<rect width="30" height="30" fill="white"/>
</clipPath>
</defs>
</svg>
