<svg width="28" height="28" fill="none" xmlns="http://www.w3.org/2000/svg"><circle cx="14" cy="14" r="14" fill="#F8F8F8"/><path d="M13.561 10.66l.439.801.439-.801c.244-.447.652-1.046 1.251-1.51l-.298-.385.298.386a3.289 3.289 0 012.06-.713c2.11 0 3.75 1.718 3.75 4.11 0 1.265-.501 2.351-1.456 3.503-.967 1.168-2.361 2.358-4.098 3.838h0c-.587.5-1.253 1.068-1.946 1.674h0s0 0 0 0 0 0 0 0c-.693-.606-1.359-1.174-1.944-1.673h-.001 0c-1.737-1.481-3.131-2.671-4.099-3.839C7.001 14.9 6.5 13.813 6.5 12.547c0-2.39 1.64-4.11 3.75-4.11.755 0 1.444.237 2.06.714l.298-.386-.298.386c.599.463 1.007 1.062 1.251 1.509z" stroke="#00CC52"/></svg>
