<svg width="24" height="15" viewBox="0 0 24 15" fill="none" xmlns="http://www.w3.org/2000/svg">
<path d="M22.5 6.5C23.0523 6.5 23.5 6.94772 23.5 7.5C23.5 8.05228 23.0523 8.5 22.5 8.5L22.5 6.5ZM0.792893 8.20711C0.402369 7.81658 0.402369 7.18342 0.792893 6.7929L7.15685 0.428934C7.54738 0.0384092 8.18054 0.0384091 8.57107 0.428933C8.96159 0.819458 8.96159 1.45262 8.57107 1.84315L2.91421 7.5L8.57107 13.1569C8.96159 13.5474 8.96159 14.1805 8.57107 14.5711C8.18054 14.9616 7.54738 14.9616 7.15685 14.5711L0.792893 8.20711ZM22.5 8.5L1.5 8.5L1.5 6.5L22.5 6.5L22.5 8.5Z" fill="white"/>
</svg>
