<svg width="36" height="33" viewBox="0 0 36 33" fill="none" xmlns="http://www.w3.org/2000/svg">
<path d="M35.6796 8.67739C35.514 8.44107 35.2929 8.24792 35.0353 8.11447C34.7776 7.98102 34.491 7.91126 34.2 7.91117H9.5994L7.5222 2.98672C7.24984 2.33823 6.78864 1.78421 6.19708 1.39492C5.60553 1.00563 4.91025 0.798589 4.1994 0.800057H0V4.35561H4.1994L12.7386 24.5956C12.8754 24.9194 13.1061 25.1961 13.4018 25.3906C13.6974 25.5852 14.0447 25.689 14.4 25.6889H28.8C29.5506 25.6889 30.222 25.2285 30.4866 24.5369L35.8866 10.3147C35.9887 10.0456 36.0231 9.75606 35.9871 9.4709C35.951 9.18574 35.8455 8.91346 35.6796 8.67739V8.67739Z" fill="#00CC52"/>
<path d="M15.3 32.8001C16.7911 32.8001 18 31.6062 18 30.1335C18 28.6607 16.7911 27.4668 15.3 27.4668C13.8088 27.4668 12.6 28.6607 12.6 30.1335C12.6 31.6062 13.8088 32.8001 15.3 32.8001Z" fill="#00CC52"/>
<path d="M27.9 32.8001C29.3912 32.8001 30.6 31.6062 30.6 30.1335C30.6 28.6607 29.3912 27.4668 27.9 27.4668C26.4088 27.4668 25.2 28.6607 25.2 30.1335C25.2 31.6062 26.4088 32.8001 27.9 32.8001Z" fill="#00CC52"/>
</svg>
