<svg width="20" height="20" viewBox="0 0 20 20" fill="none" xmlns="http://www.w3.org/2000/svg">
<path d="M19.6667 3H0.333333C0.14925 3 0 3.14925 0 3.33333V4.66667C0 4.85075 0.14925 5 0.333333 5H0.666667V16.6667C0.666667 16.8507 0.815917 17 1 17H2.33333C2.51742 17 2.66667 16.8507 2.66667 16.6667V9H12V17H19.3333V5H19.6667C19.8507 5 20 4.85075 20 4.66667V3.33333C20 3.14925 19.8507 3 19.6667 3ZM2 16.3333H1.33333V5H2V16.3333ZM12 8.33333H2.66667V7.66667H12V8.33333ZM12 7H2.66667V5H12V7ZM18.6667 16.3333H12.6667V15.6667H18.6667V16.3333ZM18.6667 15H12.6667V13H18.6667V15ZM18.6667 12.3333H12.6667V9H18.6667V12.3333ZM18.6667 8.33333H12.6667V5H18.6667V8.33333ZM19.3333 4.33333H0.666667V3.66667H19.3333V4.33333Z" fill="white"/>
<path d="M16.3333 5.6665H15V6.33317H16.3333V5.6665Z" fill="white"/>
<path d="M8.00008 5.6665H6.66675V6.33317H8.00008V5.6665Z" fill="white"/>
<path d="M16.3333 9.66675H15V10.3334H16.3333V9.66675Z" fill="white"/>
<path d="M16.3333 13.6667H15V14.3334H16.3333V13.6667Z" fill="white"/>
</svg>
