<svg width="20" height="20" viewBox="0 0 20 20" fill="none" xmlns="http://www.w3.org/2000/svg">
<path d="M18.3333 1.16675H1.66668C0.746641 1.1678 0.00109375 1.91339 0 2.83339V15.8334C0.00109375 16.625 0.55793 17.307 1.33332 17.4664V17.8334C1.33391 18.3854 1.78129 18.8328 2.33332 18.8334H4.33332C4.88535 18.8328 5.33273 18.3854 5.33332 17.8334V17.5001H14.6666V17.8334C14.6672 18.3854 15.1146 18.8328 15.6666 18.8334H17.6666C18.2187 18.8328 18.6661 18.3854 18.6666 17.8334V17.4664C19.442 17.307 19.9989 16.625 20 15.8334V2.83339C19.9989 1.91339 19.2534 1.1678 18.3333 1.16675ZM4.66668 17.8334C4.66645 18.0174 4.51734 18.1665 4.33336 18.1667H2.33336C2.14937 18.1665 2.00027 18.0174 2.00004 17.8334V17.5001H4.66672V17.8334H4.66668ZM18 17.8334C17.9998 18.0174 17.8507 18.1665 17.6667 18.1667H15.6667C15.4827 18.1665 15.3336 18.0174 15.3334 17.8334V17.5001H18V17.8334ZM19.3333 15.8334C19.3327 16.3854 18.8854 16.8328 18.3333 16.8334H1.66668C1.11465 16.8328 0.667266 16.3854 0.66668 15.8334V2.83339C0.667266 2.28136 1.11465 1.83397 1.66668 1.83339H18.3334C18.8854 1.83397 19.3328 2.28136 19.3334 2.83339V15.8334H19.3333Z" fill="white"/>
<path d="M18.3333 2.5H1.66669C1.48259 2.5 1.33337 2.64922 1.33337 2.83332V15.8333C1.33337 16.0174 1.48259 16.1666 1.66669 16.1666H18.3334C18.5175 16.1666 18.6667 16.0174 18.6667 15.8333V2.83332C18.6667 2.64926 18.5174 2.5 18.3333 2.5ZM18 15.5H2.00001V11.8333H18V15.5ZM18 11.1667H2.00001V7.5H18V11.1667ZM18 6.83332H2.00001V3.16668H18V6.83332Z" fill="white"/>
<path d="M10 5.83325C10.5523 5.83325 11 5.38556 11 4.83325C10.9994 4.28122 10.552 3.83384 10 3.83325C9.44773 3.83325 9 4.28099 9 4.83325C9 5.38552 9.44773 5.83325 10 5.83325ZM10 4.49993C10.1841 4.49993 10.3333 4.64915 10.3333 4.83325C10.3331 5.01724 10.184 5.16634 10 5.16657C9.8159 5.16657 9.66668 5.01735 9.66668 4.83325C9.66668 4.64915 9.8159 4.49993 10 4.49993Z" fill="white"/>
<path d="M10 10.1667C10.5523 10.1667 11 9.71904 11 9.16674C10.9994 8.61471 10.552 8.16733 10 8.16675C9.44773 8.16675 9 8.61448 9 9.16674C9 9.719 9.44773 10.1667 10 10.1667ZM10 8.83338C10.1841 8.83338 10.3333 8.98264 10.3333 9.1667C10.3331 9.35068 10.184 9.49979 10 9.50002C9.8159 9.50002 9.66668 9.3508 9.66668 9.1667C9.66668 8.9826 9.8159 8.83338 10 8.83338Z" fill="white"/>
<path d="M10 14.5C10.5523 14.5 11 14.0523 11 13.5C11 12.9477 10.5523 12.5 10 12.5C9.44773 12.5 9 12.9477 9 13.5C9.00059 14.052 9.44797 14.4994 10 14.5ZM10 13.1667C10.1841 13.1667 10.3333 13.3159 10.3333 13.5C10.3333 13.6841 10.1841 13.8333 10 13.8333C9.8159 13.8333 9.66668 13.6841 9.66668 13.5C9.66691 13.316 9.81602 13.1669 10 13.1667Z" fill="white"/>
</svg>
