<svg width="20" height="20" viewBox="0 0 20 20" xmlns="http://www.w3.org/2000/svg">
  <g clip-path="url(#clip0)">
    <path
      d="M9.33332 1.33325C9.14934 1.33325 9 1.48259 9 1.66657V2.99993C9 3.18392 9.14934 3.33326 9.33332 3.33326C9.51731 3.33326 9.66664 3.18392 9.66664 2.99993V1.66661C9.66668 1.48259 9.51734 1.33325 9.33332 1.33325Z"
      />
    <path
      d="M18.6668 1.33325C18.4828 1.33325 18.3335 1.48259 18.3335 1.66657V2.99993C18.3335 3.18392 18.4828 3.33326 18.6668 3.33326C18.8508 3.33326 19.0001 3.18392 19.0001 2.99993V1.66661C19.0001 1.48259 18.8508 1.33325 18.6668 1.33325Z"
      />
    <path
      d="M7 0H0.33332C0.149336 0 0 0.149336 0 0.33332V19.6666C0 19.8507 0.149336 20 0.33332 20H7C7.18398 20 7.33332 19.8507 7.33332 19.6667V0.33332C7.33332 0.149336 7.18398 0 7 0ZM6.66668 19.3333H0.66668V0.66668H6.66668V19.3333Z"
      />
    <path
      d="M19.6667 14H7.00007C6.81608 14 6.66675 14.1493 6.66675 14.3333V19.6666C6.66675 19.8506 6.81608 20 7.00007 20H19.6667C19.8507 20 20.0001 19.8506 20.0001 19.6666V14.3333C20.0001 14.1493 19.8507 14 19.6667 14ZM19.3334 19.3333H7.33339V14.6667H19.3334V19.3333Z"
      />
    <path
      d="M19.6667 0H7.00007C6.81608 0 6.66675 0.149336 6.66675 0.33332V1.66664C6.66675 1.85063 6.81608 1.99996 7.00007 1.99996H19.6667C19.8507 1.99996 20.0001 1.85063 20.0001 1.66664V0.33332C20.0001 0.149336 19.8507 0 19.6667 0ZM19.3334 1.33332H7.33339V0.66668H19.3334V1.33332Z"
      />
    <path
      d="M5.33333 9.66675H4.33332C4.14934 9.66675 4 9.81609 4 10.0001C4 10.1841 4.14934 10.3334 4.33332 10.3334H5.33333C5.51731 10.3334 5.66665 10.1841 5.66665 10.0001C5.66665 9.81609 5.51735 9.66675 5.33333 9.66675Z"
      />
    <path
      d="M4.33332 9.66675C4.14934 9.66675 4 9.81608 4 10.0001V11.0001C4 11.184 4.14934 11.3334 4.33332 11.3334C4.5173 11.3334 4.66664 11.184 4.66664 11.0001V10.0001C4.66668 9.81608 4.51734 9.66675 4.33332 9.66675Z"
      />
    <path
      d="M14.3333 16.3333H12.3333C12.1493 16.3333 12 16.4826 12 16.6666C12 16.8506 12.1493 16.9999 12.3333 16.9999H14.3333C14.5173 16.9999 14.6666 16.8506 14.6666 16.6666C14.6666 16.4826 14.5173 16.3333 14.3333 16.3333Z"
      />
    <path
      d="M13.3333 16.3333C13.1493 16.3333 13 16.4826 13 16.6666V17.3333C13 17.5172 13.1493 17.6666 13.3333 17.6666C13.5173 17.6666 13.6666 17.5172 13.6666 17.3333V16.6666C13.6667 16.4826 13.5173 16.3333 13.3333 16.3333Z"
      />
    <path
      d="M11.3333 1.33325C11.1493 1.33325 11 1.48259 11 1.66657V3.66657C11 3.85056 11.1493 3.99989 11.3333 3.99989C11.5173 3.99989 11.6666 3.85056 11.6666 3.66657V1.66657C11.6667 1.48259 11.5173 1.33325 11.3333 1.33325Z"
      />
    <path
      d="M11.3332 4.66675C9.53891 4.66675 8.33325 5.3364 8.33325 6.33343V7.00007C8.33325 7.18405 8.48259 7.33339 8.66657 7.33339H9.33325V10.3334C9.33325 10.5174 9.48259 10.6667 9.66657 10.6667H12.9999C13.1839 10.6667 13.3332 10.5174 13.3332 10.3334V7.33339H13.9999C14.1839 7.33339 14.3332 7.18405 14.3332 7.00007V6.33339C14.3332 5.3364 13.1276 4.66675 11.3332 4.66675ZM13.6666 6.66675H12.9999C12.8159 6.66675 12.6666 6.81608 12.6666 7.00007V10.0001H9.99993V7.00007C9.99993 6.81608 9.85059 6.66675 9.66661 6.66675H8.99993V6.33343C8.99993 5.84878 9.81758 5.33343 11.3332 5.33343C12.8489 5.33343 13.6666 5.84878 13.6666 6.33343V6.66675H13.6666Z"
      />
    <path
      d="M13.6667 4.66675C13.2224 4.66675 12.8057 4.70874 12.4287 4.7914C12.2757 4.82507 12.1667 4.96038 12.1667 5.11706C12.1667 5.27374 12.2757 5.40905 12.4287 5.44272C13.1807 5.60737 13.6667 5.95706 13.6667 6.33339V6.66671H13.0001C12.8161 6.66671 12.6667 6.81605 12.6667 7.00003V10.3333C12.6667 10.5173 12.8161 10.6667 13.0001 10.6667H15.3334C15.5174 10.6667 15.6667 10.5173 15.6667 10.3333V7.33335H16.3334C16.5174 7.33335 16.6667 7.18401 16.6667 7.00003V6.33335C16.6667 5.3364 15.4611 4.66675 13.6667 4.66675ZM16.0001 6.66675H15.3334C15.1494 6.66675 15.0001 6.81608 15.0001 7.00007V10.0001H13.3334V7.33339H14.0001C14.1841 7.33339 14.3334 7.18405 14.3334 7.00007V6.33339C14.3334 5.95007 14.1484 5.60772 13.8107 5.33507C15.2341 5.3664 16.0001 5.86405 16.0001 6.33339V6.66675Z"
      />
    <path
      d="M16 4.66675C15.5557 4.66675 15.139 4.70874 14.762 4.7914C14.609 4.82507 14.5 4.96038 14.5 5.11706C14.5 5.27374 14.609 5.40905 14.762 5.44272C15.514 5.60737 16 5.95706 16 6.33339V6.66671H15.3333C15.1493 6.66671 15 6.81605 15 7.00003V10.3333C15 10.5173 15.1493 10.6667 15.3333 10.6667H17.6666C17.8506 10.6667 18 10.5173 18 10.3333V7.33335H18.6666C18.8506 7.33335 19 7.18401 19 7.00003V6.33335C19 5.3364 17.7943 4.66675 16 4.66675ZM18.3333 6.66675H17.6666C17.4827 6.66675 17.3333 6.81608 17.3333 7.00007V10.0001H15.6666V7.33339H16.3333C16.5173 7.33339 16.6666 7.18405 16.6666 7.00007V6.33339C16.6666 5.95007 16.4816 5.60772 16.144 5.33507C17.5673 5.3664 18.3333 5.86405 18.3333 6.33339V6.66675Z"
      />
    <path
      d="M11.3333 3.33325C11.1493 3.33325 11 3.48259 11 3.66657C11 3.85056 11.1493 3.9999 11.3333 3.9999C11.517 3.9999 11.6666 4.14954 11.6666 4.33322C11.6666 4.51689 11.517 4.66654 11.3333 4.66654C11.1493 4.66654 11 4.81587 11 4.99986C11 5.18384 11.1493 5.33318 11.3333 5.33318C11.8846 5.33318 12.3333 4.88451 12.3333 4.33318C12.3333 3.78185 11.8846 3.33325 11.3333 3.33325Z"
      />
    <path
      d="M14.0001 1.33325C13.8161 1.33325 13.6667 1.48259 13.6667 1.66657V3.66657C13.6667 3.85056 13.8161 3.99989 14.0001 3.99989C14.1841 3.99989 14.3334 3.85056 14.3334 3.66657V1.66657C14.3334 1.48259 14.1841 1.33325 14.0001 1.33325Z"
      />
    <path
      d="M14.0001 3.33325C13.8161 3.33325 13.6667 3.48259 13.6667 3.66657C13.6667 3.85056 13.8161 3.9999 14.0001 3.9999C14.1837 3.9999 14.3334 4.14954 14.3334 4.33322C14.3334 4.51689 14.1837 4.66654 14.0001 4.66654C13.8161 4.66654 13.6667 4.81587 13.6667 4.99986C13.6667 5.18384 13.8161 5.33318 14.0001 5.33318C14.5514 5.33318 15.0001 4.88451 15.0001 4.33318C15.0001 3.78185 14.5514 3.33325 14.0001 3.33325Z"
      />
    <path
      d="M16.6666 1.33325C16.4826 1.33325 16.3333 1.48259 16.3333 1.66657V3.66657C16.3333 3.85056 16.4826 3.99989 16.6666 3.99989C16.8506 3.99989 16.9999 3.85056 16.9999 3.66657V1.66657C16.9999 1.48259 16.8506 1.33325 16.6666 1.33325Z"
      />
    <path
      d="M16.6666 3.33325C16.4826 3.33325 16.3333 3.48259 16.3333 3.66657C16.3333 3.85056 16.4826 3.9999 16.6666 3.9999C16.8502 3.9999 16.9999 4.14954 16.9999 4.33322C16.9999 4.51689 16.8502 4.66654 16.6666 4.66654C16.4826 4.66654 16.3333 4.81587 16.3333 4.99986C16.3333 5.18384 16.4826 5.33318 16.6666 5.33318C17.2179 5.33318 17.6666 4.88451 17.6666 4.33318C17.6666 3.78185 17.2179 3.33325 16.6666 3.33325Z"
      />
    <path
      d="M19.0001 12.6665H7.00007C6.81608 12.6665 6.66675 12.8158 6.66675 12.9998V14.3331C6.66675 14.5171 6.81608 14.6665 7.00007 14.6665H19.0001C19.1841 14.6665 19.3334 14.5171 19.3334 14.3331V12.9998C19.3334 12.8158 19.1841 12.6665 19.0001 12.6665ZM18.6667 13.9998H7.33339V13.3331H18.6667V13.9998H18.6667Z"
      />
    <path
      d="M18.3333 15.3333H8.33332C8.14934 15.3333 8 15.4826 8 15.6666V18.3333C8 18.5172 8.14934 18.6666 8.33332 18.6666H18.3333C18.5173 18.6666 18.6666 18.5172 18.6666 18.3333V15.6666C18.6667 15.4826 18.5173 15.3333 18.3333 15.3333ZM18 17.9999H8.66668V15.9999H18V17.9999Z"
      />
  </g>
  <defs>
    <clipPath id="clip0">
      <rect width="20" height="20" fill="white"/>
    </clipPath>
  </defs>
</svg>
