<svg width="20" height="20" viewBox="0 0 20 20" fill="none" xmlns="http://www.w3.org/2000/svg">
<g clip-path="url(#clip0)">
<path d="M11.8157 6.45417C11.7249 6.38162 11.6101 6.34586 11.4942 6.35395H9.74046L11.3898 4.51256L11.5443 4.34137L11.6236 4.24116C11.6512 4.20243 11.6736 4.16031 11.6904 4.11589C11.7094 4.06803 11.7192 4.01704 11.7196 3.96558C11.7313 3.84381 11.6709 3.72637 11.5652 3.66494C11.4279 3.602 11.2775 3.57329 11.1267 3.58143H9.07656C8.96717 3.57397 8.85881 3.60664 8.77175 3.67329C8.69983 3.73451 8.6598 3.82523 8.66319 3.91965C8.66319 4.06161 8.71053 4.14789 8.80516 4.17853C8.94086 4.2171 9.08173 4.23401 9.2227 4.22863H10.5589C10.5032 4.30656 10.4308 4.39842 10.3417 4.50421L9.99934 4.88836L9.53587 5.38942L8.99723 5.98651C8.81074 6.19529 8.68824 6.33449 8.62979 6.40406C8.49721 6.56508 8.51371 6.80167 8.66737 6.9427C8.77749 7.02569 8.91403 7.06572 9.05151 7.05544H11.49C11.6066 7.06457 11.7226 7.03038 11.8157 6.9594C11.8866 6.89745 11.9264 6.8072 11.9242 6.71305C11.9278 6.61497 11.8881 6.5203 11.8157 6.45417Z" fill="white"/>
<path d="M15.511 8.58776C15.438 8.5293 15.3454 8.50096 15.2521 8.50842H13.8492L15.1645 7.03865L15.2897 6.90086L15.3691 6.80482C15.3915 6.77393 15.4097 6.74026 15.4233 6.70461C15.4392 6.66615 15.4477 6.62512 15.4484 6.58352C15.4589 6.48608 15.4115 6.39145 15.3273 6.34135C15.2175 6.29093 15.0972 6.26796 14.9766 6.27454H13.3231C13.236 6.26968 13.15 6.29636 13.0809 6.3497C13.0232 6.39824 12.9909 6.47058 12.9932 6.54594C12.9932 6.65727 13.0308 6.7269 13.106 6.75472C13.2146 6.78483 13.3274 6.79752 13.44 6.7923H14.5089C14.4672 6.85493 14.4087 6.92591 14.3335 7.0136L14.058 7.32258L13.6989 7.74013L13.2813 8.21614C13.131 8.38316 13.0322 8.4973 12.9849 8.55853C12.8865 8.68473 12.8991 8.8648 13.0141 8.97608C13.1017 9.04127 13.21 9.07243 13.3189 9.06376H15.2563C15.3489 9.07117 15.441 9.04445 15.5152 8.9886C15.5704 8.93855 15.6009 8.86683 15.5987 8.79235C15.6006 8.71464 15.5686 8.63995 15.511 8.58776Z" fill="white"/>
<path d="M19.8911 6.24114C19.8003 6.16859 19.6856 6.13284 19.5696 6.14093H17.8034L19.4527 4.29954L19.6072 4.12835L19.7074 4.00726C19.735 3.96853 19.7574 3.92641 19.7742 3.88199C19.7932 3.83413 19.803 3.78314 19.8035 3.73168C19.8151 3.60991 19.7548 3.49247 19.649 3.43104C19.5117 3.36809 19.3613 3.33944 19.2105 3.34753H17.1395C17.0301 3.34007 16.9217 3.37274 16.8347 3.43939C16.7628 3.50061 16.7227 3.59133 16.7261 3.68574C16.7261 3.82771 16.7735 3.91399 16.8681 3.94463C17.0038 3.9832 17.1447 4.00011 17.2856 3.99473H18.6218C18.5661 4.07266 18.4938 4.16452 18.4047 4.27031L18.0581 4.66281L17.6072 5.16387L17.0685 5.76096C16.882 5.96974 16.7595 6.10894 16.7011 6.17851C16.5685 6.33953 16.585 6.57612 16.7387 6.71715C16.8488 6.80013 16.9853 6.84017 17.1228 6.82989H19.5571C19.675 6.84471 19.7941 6.81491 19.8911 6.74638C19.9621 6.68442 20.0018 6.59418 19.9997 6.50002C20.0033 6.40195 19.9636 6.30727 19.8911 6.24114Z" fill="white"/>
<path d="M18.4506 13.2727C18.3317 13.1495 18.1496 13.1114 17.9913 13.1766C13.4657 15.0501 8.27826 12.9001 6.40478 8.37446C5.45344 6.07632 5.51086 3.48429 6.56303 1.23057C6.66162 1.02211 6.57253 0.773196 6.36407 0.674602C6.25707 0.623975 6.13358 0.621208 6.02439 0.666878C1.06282 2.70498 -1.30714 8.37937 0.730971 13.3409C2.76908 18.3025 8.44346 20.6725 13.4051 18.6344C15.668 17.7048 17.4967 15.9555 18.5258 13.7361C18.5982 13.5809 18.5684 13.3971 18.4506 13.2727ZM9.7197 18.5338C4.8147 18.5329 0.839116 14.556 0.839951 9.65101C0.840473 6.43025 2.58468 3.46221 5.39807 1.89447C5.06492 2.88333 4.89565 3.92 4.89701 4.96345C4.89727 10.3296 9.24766 14.6796 14.6138 14.6793C15.5132 14.6793 16.4081 14.5544 17.2731 14.3082C15.6538 16.9265 12.7982 18.524 9.7197 18.5338Z" fill="white"/>
</g>
<defs>
<clipPath id="clip0">
<rect width="20" height="20" fill="white"/>
</clipPath>
</defs>
</svg>
