<svg width="20" height="20" viewBox="0 0 20 20" fill="none" xmlns="http://www.w3.org/2000/svg">
<path d="M19.6774 3.2259C18.7881 3.2259 18.0645 3.94945 18.0645 4.8388V7.09687H15.4839V3.2259C15.4839 3.04751 15.3397 2.90332 15.1613 2.90332H5.16129C4.9829 2.90332 4.83871 3.04751 4.83871 3.2259V7.09687H1.93548V4.8388C1.93548 3.94945 1.21194 3.2259 0.322581 3.2259C0.144194 3.2259 0 3.37009 0 3.54848V10.3227V11.613V15.8065H0.645161V11.9356H4.83871V16.7743C4.83871 16.9527 4.9829 17.0969 5.16129 17.0969H6.45161C6.63 17.0969 6.77419 16.9527 6.77419 16.7743V13.2259H13.5484V16.7743C13.5484 16.9527 13.6926 17.0969 13.871 17.0969H15.1613C15.3397 17.0969 15.4839 16.9527 15.4839 16.7743V11.9356H19.3548V15.8065H20V11.613V10.3227V3.54848C20 3.37009 19.8558 3.2259 19.6774 3.2259ZM4.83871 11.2904H0.645161V10.3227V3.92622C1.02065 4.05945 1.29032 4.41816 1.29032 4.8388V7.41945V10.3227C1.29032 10.5011 1.43452 10.6453 1.6129 10.6453H4.83871V11.2904ZM4.83871 10.0001H1.93548V7.74203H4.83871V10.0001ZM14.8387 16.4517H14.1935V12.9033C14.1935 12.7249 14.0494 12.5807 13.871 12.5807H6.45161C6.27323 12.5807 6.12903 12.7249 6.12903 12.9033V16.4517H5.48387V11.9356H14.8387V16.4517ZM14.8387 7.41945V10.3227V11.2904H5.48387V10.3227V7.41945V3.54848H14.8387V7.41945ZM15.4839 7.74203H18.0645V10.0001H15.4839V7.74203ZM19.3548 10.3227V11.2904H15.4839V10.6453H18.3871C18.5655 10.6453 18.7097 10.5011 18.7097 10.3227V7.41945V4.8388C18.7097 4.41816 18.9794 4.05945 19.3548 3.92622V10.3227Z" fill="white"/>
<path d="M8.38721 5.48389H6.45173C6.27334 5.48389 6.12915 5.62808 6.12915 5.80647V9.03227C6.12915 9.21066 6.27334 9.35485 6.45173 9.35485H8.38721C8.5656 9.35485 8.7098 9.21066 8.7098 9.03227V5.80647C8.7098 5.62808 8.5656 5.48389 8.38721 5.48389ZM8.06463 8.70969H6.77431V6.12905H8.06463V8.70969Z" fill="white"/>
<path d="M13.8709 5.48389H11.9354C11.757 5.48389 11.6128 5.62808 11.6128 5.80647V9.03227C11.6128 9.21066 11.757 9.35485 11.9354 9.35485H13.8709C14.0492 9.35485 14.1934 9.21066 14.1934 9.03227V5.80647C14.1934 5.62808 14.0492 5.48389 13.8709 5.48389ZM13.5483 8.70969H12.258V6.12905H13.5483V8.70969Z" fill="white"/>
</svg>
