<svg width="20" height="20" viewBox="0 0 20 20" fill="none" xmlns="http://www.w3.org/2000/svg">
<path d="M19.707 2.50513H0.292969C0.131172 2.50513 0 2.6363 0 2.7981C0 2.95989 0.131172 3.09106 0.292969 3.09106H0.62625V17.2021C0.62625 17.3639 0.757422 17.495 0.919219 17.495C1.08102 17.495 1.21219 17.3639 1.21219 17.2021V15.9481C1.56785 15.8377 2.47762 15.6163 4.05051 15.6163C5.05113 15.6163 5.79203 15.7517 6.57645 15.8952C7.4668 16.058 8.4759 16.2425 10 16.2425C11.5241 16.2425 12.5332 16.058 13.4236 15.8952C14.208 15.7517 14.9489 15.6163 15.9495 15.6163C17.5227 15.6163 18.4323 15.8377 18.7878 15.9481V17.2021C18.7878 17.3639 18.919 17.495 19.0808 17.495C19.2426 17.495 19.3737 17.3639 19.3737 17.2021V3.09106H19.707C19.8688 3.09106 20 2.95989 20 2.7981C20 2.6363 19.8688 2.50513 19.707 2.50513ZM18.7878 15.3376C18.3063 15.2073 17.3882 15.0303 15.9495 15.0303C14.8957 15.0303 14.1295 15.1704 13.3182 15.3188C12.41 15.4849 11.4709 15.6566 10 15.6566C8.52914 15.6566 7.59004 15.4849 6.68191 15.3188C5.87063 15.1704 5.10434 15.0303 4.05059 15.0303C2.61188 15.0303 1.69375 15.2073 1.21227 15.3376V3.09106H18.7879V15.3376H18.7878Z" fill="white"/>
<path d="M2.17187 6.84855H17.8284C17.9902 6.84855 18.1214 6.71738 18.1214 6.55558V4.05054C18.1214 3.88874 17.9902 3.75757 17.8284 3.75757H4.05066C3.88887 3.75757 3.7577 3.88874 3.7577 4.05054C3.7577 4.21234 3.88887 4.34351 4.05066 4.34351H9.70715V6.26261H2.46484V4.34351H4.14074C4.30254 4.34351 4.43371 4.21234 4.43371 4.05054C4.43371 3.88874 4.30254 3.75757 4.14074 3.75757H2.17187C2.01008 3.75757 1.87891 3.88874 1.87891 4.05054V6.55558C1.87891 6.71738 2.01008 6.84855 2.17187 6.84855ZM10.2931 4.34351H17.5354V6.26261H10.2931V4.34351Z" fill="white"/>
<path d="M2.17187 10.6061H17.8284C17.9902 10.6061 18.1214 10.4749 18.1214 10.3131V7.80811C18.1214 7.64631 17.9902 7.51514 17.8284 7.51514H2.17187C2.01008 7.51514 1.87891 7.64631 1.87891 7.80811V10.3131C1.87891 10.4749 2.01008 10.6061 2.17187 10.6061ZM17.5354 10.0202H10.2931V8.10107H17.5354V10.0202ZM2.46484 8.10107H9.70715V10.0202H2.46484V8.10107Z" fill="white"/>
<path d="M2.17187 14.3637H17.8284C17.9902 14.3637 18.1214 14.2325 18.1214 14.0708V11.5657C18.1214 11.4039 17.9902 11.2727 17.8284 11.2727L15.6642 11.2727C15.5024 11.2727 15.3712 11.4039 15.3712 11.5657C15.3712 11.7275 15.5024 11.8586 15.6642 11.8586H17.5354V13.7777H10.2931V11.8586H15.9496C16.1114 11.8586 16.2426 11.7275 16.2426 11.5657C16.2426 11.4039 16.1114 11.2727 15.9496 11.2727H2.17187C2.01008 11.2727 1.87891 11.4039 1.87891 11.5657V14.0707C1.87891 14.2325 2.01008 14.3637 2.17187 14.3637ZM2.46484 11.8586H9.70715V13.7777H2.46484V11.8586Z" fill="white"/>
<path d="M7.16161 4.98999C7.16161 4.82819 7.03044 4.69702 6.86864 4.69702C6.70685 4.69702 6.57567 4.82819 6.57567 4.98999C6.57567 5.17065 6.35134 5.32327 6.08579 5.32327C5.82028 5.32327 5.59595 5.17065 5.59595 4.98999C5.59595 4.82819 5.46478 4.69702 5.30298 4.69702C5.14118 4.69702 5.01001 4.82819 5.01001 4.98999C5.01001 5.49686 5.49259 5.9092 6.08579 5.9092C6.67899 5.9092 7.16161 5.49686 7.16161 4.98999Z" fill="white"/>
<path d="M6.86864 8.45459C6.70685 8.45459 6.57567 8.58576 6.57567 8.74756C6.57567 8.92822 6.35134 9.08084 6.08579 9.08084C5.82028 9.08084 5.59595 8.92822 5.59595 8.74756C5.59595 8.58576 5.46478 8.45459 5.30298 8.45459C5.14118 8.45459 5.01001 8.58576 5.01001 8.74756C5.01001 9.25443 5.49259 9.66678 6.08579 9.66678C6.67899 9.66678 7.16161 9.25443 7.16161 8.74756C7.16161 8.58576 7.03044 8.45459 6.86864 8.45459Z" fill="white"/>
<path d="M6.86864 12.2122C6.70685 12.2122 6.57567 12.3433 6.57567 12.5051C6.57567 12.6858 6.35134 12.8384 6.08579 12.8384C5.82028 12.8384 5.59595 12.6858 5.59595 12.5051C5.59595 12.3433 5.46478 12.2122 5.30298 12.2122C5.14118 12.2122 5.01001 12.3433 5.01001 12.5051C5.01001 13.012 5.49259 13.4243 6.08579 13.4243C6.67899 13.4243 7.16161 13.012 7.16161 12.5051C7.16161 12.3433 7.03044 12.2122 6.86864 12.2122Z" fill="white"/>
<path d="M14.697 4.69702C14.5352 4.69702 14.404 4.82819 14.404 4.98999C14.404 5.17065 14.1797 5.32327 13.9142 5.32327C13.6487 5.32327 13.4243 5.17065 13.4243 4.98999C13.4243 4.82819 13.2931 4.69702 13.1313 4.69702C12.9696 4.69702 12.8384 4.82819 12.8384 4.98999C12.8384 5.49686 13.321 5.9092 13.9142 5.9092C14.5074 5.9092 14.99 5.49686 14.99 4.98999C14.99 4.82819 14.8588 4.69702 14.697 4.69702Z" fill="white"/>
<path d="M13.9142 9.66678C14.5074 9.66678 14.99 9.25443 14.99 8.74756C14.99 8.58576 14.8588 8.45459 14.697 8.45459C14.5352 8.45459 14.404 8.58576 14.404 8.74756C14.404 8.92822 14.1797 9.08084 13.9142 9.08084C13.6487 9.08084 13.4243 8.92822 13.4243 8.74756C13.4243 8.58576 13.2931 8.45459 13.1313 8.45459C12.9696 8.45459 12.8384 8.58576 12.8384 8.74756C12.8384 9.25439 13.321 9.66678 13.9142 9.66678Z" fill="white"/>
<path d="M14.404 12.5051C14.404 12.6858 14.1797 12.8384 13.9142 12.8384C13.6487 12.8384 13.4243 12.6858 13.4243 12.5051C13.4243 12.3433 13.2931 12.2122 13.1313 12.2122C12.9696 12.2122 12.8384 12.3433 12.8384 12.5051C12.8384 13.012 13.321 13.4243 13.9142 13.4243C14.5074 13.4243 14.99 13.012 14.99 12.5051C14.99 12.3433 14.8588 12.2122 14.697 12.2122C14.5352 12.2122 14.404 12.3433 14.404 12.5051Z" fill="white"/>
</svg>
