<svg width="20" height="20" viewBox="0 0 20 20" fill="none" xmlns="http://www.w3.org/2000/svg">
<path d="M17.1875 7.34375H16.875V4.84375C16.874 3.98125 16.175 3.28227 15.3125 3.28125H4.6875C3.825 3.28227 3.12602 3.98125 3.125 4.84375V7.34375H2.8125C1.26 7.34562 0.001875 8.60375 0 10.1562V14.5312H0.625V16.7188H2.1875V14.5312H17.8125V16.7188H19.375V14.5312H20V10.1562C19.9981 8.60375 18.74 7.34562 17.1875 7.34375ZM3.75 4.84375C3.75 4.32598 4.16973 3.90625 4.6875 3.90625H15.3125C15.8303 3.90625 16.25 4.32598 16.25 4.84375V7.34375H15.3125V6.09375C15.3125 5.57598 14.8928 5.15625 14.375 5.15625H11.5625C11.0447 5.15625 10.625 5.57598 10.625 6.09375V7.34375H9.375V6.09375C9.375 5.57598 8.95527 5.15625 8.4375 5.15625H5.625C5.10723 5.15625 4.6875 5.57598 4.6875 6.09375V7.34375H3.75V4.84375ZM14.6875 6.09375V7.34375H11.25V6.09375C11.25 5.92117 11.3899 5.78125 11.5625 5.78125H14.375C14.5476 5.78125 14.6875 5.92117 14.6875 6.09375ZM8.75 6.09375V7.34375H5.3125V6.09375C5.3125 5.92117 5.45242 5.78125 5.625 5.78125H8.4375C8.61008 5.78125 8.75 5.92117 8.75 6.09375ZM1.5625 16.0938H1.25V14.5312H1.5625V16.0938ZM18.75 16.0938H18.4375V14.5312H18.75V16.0938ZM19.375 13.9062H0.625V12.3438H19.375V13.9062ZM19.375 11.7188H0.625V10.1562C0.626367 8.94871 1.60496 7.97012 2.8125 7.96875H17.1875C18.395 7.97012 19.3736 8.94871 19.375 10.1562V11.7188Z" fill="white"/>
</svg>
