<svg width="20" height="20" viewBox="0 0 20 20" fill="none" xmlns="http://www.w3.org/2000/svg">
<path d="M19.6667 0H0.33332C0.149336 0 0 0.148984 0 0.33332V5.66664C0 5.85098 0.149336 5.99996 0.33332 5.99996H19.6666C19.8506 5.99996 20 5.85098 20 5.66664V0.33332C20 0.148984 19.8507 0 19.6667 0ZM19.3333 5.33332H0.66668V0.66668H19.3334V5.33332H19.3333Z" fill="white"/>
<path d="M19.6667 11.3333H0.33332C0.149336 11.3333 0 11.4822 0 11.6666V19.6666C0 19.8509 0.149336 19.9999 0.33332 19.9999H19.6666C19.8506 19.9999 20 19.8509 20 19.6666V11.6666C20 11.4823 19.8507 11.3333 19.6667 11.3333ZM19.3333 19.3333H0.66668V11.9999H19.3334V19.3333H19.3333Z" fill="white"/>
<path d="M6.33333 1.3335H1.66669C1.48271 1.3335 1.33337 1.48248 1.33337 1.66682V4.3335C1.33337 4.51783 1.48271 4.66682 1.66669 4.66682H6.33337C6.51736 4.66682 6.66669 4.51783 6.66669 4.3335V1.66686C6.66669 1.48252 6.51736 1.3335 6.33333 1.3335ZM6.00001 4.00018H2.00001V2.00018H6.00001V4.00018Z" fill="white"/>
<path d="M5.00007 2.3335H3.00007C2.81608 2.3335 2.66675 2.48248 2.66675 2.66682C2.66675 2.85115 2.81608 3.00018 3.00007 3.00018H5.00007C5.18405 3.00018 5.33339 2.85119 5.33339 2.66686C5.33339 2.48252 5.18405 2.3335 5.00007 2.3335Z" fill="white"/>
<path d="M4.00007 2.3335C3.81608 2.3335 3.66675 2.48248 3.66675 2.66682V3.3335C3.66675 3.51783 3.81608 3.66682 4.00007 3.66682C4.18405 3.66682 4.33339 3.51783 4.33339 3.3335V2.66686C4.33339 2.48252 4.18405 2.3335 4.00007 2.3335Z" fill="white"/>
<path d="M18.3333 1.3335H13.6667C13.4827 1.3335 13.3334 1.48248 13.3334 1.66682V4.3335C13.3334 4.51783 13.4827 4.66682 13.6667 4.66682H18.3334C18.5174 4.66682 18.6667 4.51783 18.6667 4.3335V1.66686C18.6667 1.48252 18.5174 1.3335 18.3333 1.3335ZM18 4.00018H14V2.00018H18V4.00018Z" fill="white"/>
<path d="M16.9999 2.3335H14.9999C14.816 2.3335 14.6666 2.48248 14.6666 2.66682C14.6666 2.85115 14.816 3.00018 14.9999 3.00018H16.9999C17.1839 3.00018 17.3333 2.85119 17.3333 2.66686C17.3333 2.48252 17.1839 2.3335 16.9999 2.3335Z" fill="white"/>
<path d="M15.9999 2.3335C15.816 2.3335 15.6666 2.48248 15.6666 2.66682V3.3335C15.6666 3.51783 15.816 3.66682 15.9999 3.66682C16.1839 3.66682 16.3333 3.51783 16.3333 3.3335V2.66686C16.3333 2.48252 16.1839 2.3335 15.9999 2.3335Z" fill="white"/>
<path d="M12.3333 1.3335H7.66669C7.48271 1.3335 7.33337 1.48248 7.33337 1.66682V4.3335C7.33337 4.51783 7.48271 4.66682 7.66669 4.66682H12.3334C12.5173 4.66682 12.6667 4.51783 12.6667 4.3335V1.66686C12.6667 1.48252 12.5173 1.3335 12.3333 1.3335ZM12 4.00018H8.00001V2.00018H12V4.00018Z" fill="white"/>
<path d="M11.0001 2.3335H9.00007C8.81608 2.3335 8.66675 2.48248 8.66675 2.66682C8.66675 2.85115 8.81608 3.00018 9.00007 3.00018H11.0001C11.1841 3.00018 11.3334 2.85119 11.3334 2.66686C11.3334 2.48252 11.1841 2.3335 11.0001 2.3335Z" fill="white"/>
<path d="M9.99995 2.3335C9.81597 2.3335 9.66663 2.48248 9.66663 2.66682V3.3335C9.66663 3.51783 9.81597 3.66682 9.99995 3.66682C10.1839 3.66682 10.3333 3.51783 10.3333 3.3335V2.66686C10.3333 2.48252 10.1839 2.3335 9.99995 2.3335Z" fill="white"/>
<path d="M18.3333 12.6665H9.99995C9.81596 12.6665 9.66663 12.8155 9.66663 12.9998V15.6665C9.66663 15.8508 9.81596 15.9998 9.99995 15.9998H18.3333C18.5173 15.9998 18.6666 15.8508 18.6666 15.6665V12.9998C18.6666 12.8155 18.5173 12.6665 18.3333 12.6665ZM18 15.3331H10.3333V13.3331H18V15.3331Z" fill="white"/>
<path d="M15.3333 13.6667H13.3333C13.1493 13.6667 13 13.8157 13 14.0001C13 14.1844 13.1493 14.3334 13.3333 14.3334H15.3333C15.5173 14.3334 15.6666 14.1844 15.6666 14.0001C15.6666 13.8157 15.5173 13.6667 15.3333 13.6667Z" fill="white"/>
<path d="M14.3333 13.6667C14.1493 13.6667 14 13.8157 14 14.0001V14.6667C14 14.8511 14.1493 15.0001 14.3333 15.0001C14.5173 15.0001 14.6666 14.8511 14.6666 14.6667V14.0001C14.6667 13.8157 14.5173 13.6667 14.3333 13.6667Z" fill="white"/>
<path d="M18.3333 15.3333H9.99995C9.81596 15.3333 9.66663 15.4822 9.66663 15.6666V18.3333C9.66663 18.5176 9.81596 18.6666 9.99995 18.6666H18.3333C18.5173 18.6666 18.6666 18.5176 18.6666 18.3333V15.6666C18.6666 15.4823 18.5173 15.3333 18.3333 15.3333ZM18 17.9999H10.3333V15.9999H18V17.9999Z" fill="white"/>
<path d="M15.3333 16.3333H13.3333C13.1493 16.3333 13 16.4822 13 16.6666C13 16.8509 13.1493 16.9999 13.3333 16.9999H15.3333C15.5173 16.9999 15.6666 16.8509 15.6666 16.6666C15.6666 16.4822 15.5173 16.3333 15.3333 16.3333Z" fill="white"/>
<path d="M14.3333 16.3333C14.1493 16.3333 14 16.4822 14 16.6666V17.3333C14 17.5176 14.1493 17.6666 14.3333 17.6666C14.5173 17.6666 14.6666 17.5176 14.6666 17.3333V16.6666C14.6667 16.4823 14.5173 16.3333 14.3333 16.3333Z" fill="white"/>
<path d="M10 12.6665H1.66669C1.48271 12.6665 1.33337 12.8155 1.33337 12.9998V18.3331C1.33337 18.5175 1.48271 18.6665 1.66669 18.6665H10C10.184 18.6665 10.3333 18.5175 10.3333 18.3331V12.9998C10.3333 12.8155 10.184 12.6665 10 12.6665ZM9.66669 17.9998H2.00001V13.3331H9.66669V17.9998Z" fill="white"/>
<path d="M7.00001 14.3333H4.66669C4.48271 14.3333 4.33337 14.4822 4.33337 14.6666V15.3333C4.33337 15.5176 4.48271 15.6666 4.66669 15.6666C4.85068 15.6666 5.00001 15.5176 5.00001 15.3333V14.9999H6.66669V15.3333C6.66669 15.5176 6.81602 15.6666 7.00001 15.6666C7.18399 15.6666 7.33333 15.5176 7.33333 15.3333V14.6666C7.33333 14.4823 7.18399 14.3333 7.00001 14.3333Z" fill="white"/>
<path d="M12.6666 8.66675H11.3333C11.1493 8.66675 11 8.81573 11 9.00007V10.3334C11 10.5177 11.1493 10.6667 11.3333 10.6667H12.6666C12.8506 10.6667 13 10.5177 13 10.3334V9.00007C13 8.81573 12.8506 8.66675 12.6666 8.66675ZM12.3333 10.0001H11.6666V9.33339H12.3333V10.0001Z" fill="white"/>
<path d="M13.3334 8.66675H10.6667C10.4827 8.66675 10.3334 8.81573 10.3334 9.00007C10.3334 9.1844 10.4827 9.33339 10.6667 9.33339H13.3334C13.5174 9.33339 13.6667 9.1844 13.6667 9.00007C13.6667 8.81573 13.5174 8.66675 13.3334 8.66675Z" fill="white"/>
<path d="M8.33339 8.66675H7.00007C6.81608 8.66675 6.66675 8.81573 6.66675 9.00007V10.3334C6.66675 10.5177 6.81608 10.6667 7.00007 10.6667H8.33339C8.51737 10.6667 8.66671 10.5177 8.66671 10.3334V9.00007C8.66675 8.81573 8.51741 8.66675 8.33339 8.66675ZM8.00007 10.0001H7.33339V9.33339H8.00007V10.0001Z" fill="white"/>
<path d="M9 8.66675H6.33332C6.14934 8.66675 6 8.81573 6 9.00007C6 9.1844 6.14934 9.33339 6.33332 9.33339H9C9.18398 9.33339 9.33332 9.1844 9.33332 9.00007C9.33332 8.81573 9.18398 8.66675 9 8.66675Z" fill="white"/>
<path d="M14 10H5.66669C5.48271 10 5.33337 10.149 5.33337 10.3333V11.6666C5.33337 11.851 5.48271 12 5.66669 12H14C14.184 12 14.3333 11.851 14.3333 11.6666V10.3333C14.3333 10.149 14.184 10 14 10ZM13.6667 11.3333H6.00002V10.6666H13.6667V11.3333Z" fill="white"/>
<path d="M4.59611 8.79507C4.5331 8.71405 4.43611 8.66675 4.33345 8.66675H1.00009C0.897434 8.66675 0.800441 8.71409 0.737434 8.79507C0.674113 8.87573 0.651769 8.98108 0.676769 9.08073L1.10075 10.7774C1.28075 11.4974 1.92474 12.0001 2.66677 12.0001C3.4088 12.0001 4.05279 11.4974 4.23279 10.7774L4.65677 9.08073C4.68177 8.9814 4.65907 8.87573 4.59611 8.79507ZM3.58575 10.6161C3.48009 11.0384 3.10243 11.3334 2.66677 11.3334C2.23111 11.3334 1.85345 11.0384 1.74779 10.6161L1.42712 9.33343H3.90646L3.58575 10.6161Z" fill="white"/>
<path d="M4.51828 6.72256C4.36527 6.62088 4.15796 6.6619 4.05593 6.81491L2.72261 8.81491C2.62027 8.96823 2.66195 9.17491 2.81496 9.27725C2.87195 9.31491 2.93597 9.33327 2.9996 9.33327C3.10726 9.33327 3.21292 9.28127 3.27726 9.18495L4.61058 7.18495C4.71296 7.03159 4.67128 6.82491 4.51828 6.72256Z" fill="white"/>
<path d="M19.0001 6.66675H16.3334C15.782 6.66675 15.3334 7.11542 15.3334 7.66675C15.3334 8.21808 15.782 8.66675 16.3334 8.66675H17.3334V10.0001H15.6667C15.4827 10.0001 15.3334 10.1491 15.3334 10.3334V11.6667C15.3334 11.8511 15.4827 12 15.6667 12H19.0001C19.184 12 19.3334 11.8511 19.3334 11.6667V7.00007C19.3334 6.81573 19.184 6.66675 19.0001 6.66675ZM18.6667 11.3334H16.0001V10.6667H17.6667C17.8507 10.6667 18.0001 10.5177 18.0001 10.3334V8.33339C18.0001 8.14906 17.8507 8.00007 17.6667 8.00007H16.3334C16.1494 8.00007 16.0001 7.85074 16.0001 7.66675C16.0001 7.48277 16.1494 7.33343 16.3334 7.33343H18.6667V11.3334Z" fill="white"/>
</svg>
