<svg width="20" height="20" viewBox="0 0 20 20" fill="none" xmlns="http://www.w3.org/2000/svg">
<path d="M19.6875 8.94531H0.312515C0.139801 8.94531 0 9.08507 0 9.25783V10.8203C0 10.993 0.139755 11.1328 0.312515 11.1328H19.6875C19.8602 11.1328 20 10.9931 20 10.8203V9.25783C20 9.08511 19.8602 8.94531 19.6875 8.94531ZM19.375 10.5078H0.624984V9.57034H19.375V10.5078Z" fill="white"/>
<path d="M7.81253 7.69531H1.87501C1.7023 7.69531 1.5625 7.83507 1.5625 8.00783C1.5625 8.18059 1.70226 8.32034 1.87501 8.32034H7.81253C7.98524 8.32034 8.12504 8.18059 8.12504 8.00783C8.12504 7.83507 7.98524 7.69531 7.81253 7.69531Z" fill="white"/>
<path d="M6.87501 7.69531H3.12502C2.9523 7.69531 2.8125 7.83507 2.8125 8.00783V9.25784C2.8125 9.43056 2.95226 9.57036 3.12502 9.57036H6.87501C7.04773 9.57036 7.18753 9.4306 7.18753 9.25784V8.00783C7.18748 7.83507 7.04773 7.69531 6.87501 7.69531ZM6.5625 8.94528H3.43748V8.3203H6.5625V8.94528Z" fill="white"/>
<path d="M18.125 2.69531H10.9375C10.7648 2.69531 10.625 2.83507 10.625 3.00783V7.65078C10.625 8.70913 11.4862 9.57032 12.5445 9.57032H16.518C17.5763 9.57032 18.4375 8.70913 18.4375 7.65078V3.00783C18.4375 2.83507 18.2978 2.69531 18.125 2.69531ZM17.8124 7.65078C17.8124 8.36453 17.2317 8.94529 16.5179 8.94529H12.5446C11.8308 8.94529 11.2501 8.36457 11.2501 7.65078V3.3203H17.8125V7.65078H17.8124Z" fill="white"/>
<path d="M19.0625 2.69531H10C9.8273 2.69531 9.6875 2.83507 9.6875 3.00783C9.6875 3.18058 9.82725 3.32034 10 3.32034H19.0625C19.2352 3.32034 19.375 3.18058 19.375 3.00783C19.375 2.83507 19.2353 2.69531 19.0625 2.69531Z" fill="white"/>
<path d="M14.5312 0.429688C13.2388 0.429688 12.1875 1.48103 12.1875 2.77344C12.1875 2.94615 12.3273 3.08595 12.5 3.08595C12.6728 3.08595 12.8125 2.9462 12.8125 2.77344C12.8125 1.82587 13.5837 1.05467 14.5313 1.05467C15.4789 1.05467 16.2501 1.82582 16.2501 2.77344C16.2501 2.94615 16.3898 3.08595 16.5626 3.08595C16.7353 3.08595 16.8751 2.9462 16.8751 2.77344C16.875 1.48099 15.8237 0.429688 14.5312 0.429688Z" fill="white"/>
<path d="M18.4375 10.5078H1.56252C1.3898 10.5078 1.25 10.6476 1.25 10.8203V17.3828C1.25 17.4778 1.29303 17.5675 1.36719 17.627C1.44162 17.6861 1.5378 17.709 1.63118 17.6877L4.59414 17.0212C5.33728 16.8537 6.12312 16.8524 6.86744 17.0151L8.77691 17.4341C9.58651 17.6123 10.4097 17.6168 11.2223 17.449L13.3802 17.0025C14.13 16.8472 14.9201 16.86 15.6644 17.0385L18.3646 17.6867C18.3887 17.6925 18.4132 17.6952 18.4375 17.6952C18.5072 17.6952 18.5755 17.672 18.631 17.6282C18.7061 17.569 18.75 17.4786 18.75 17.3828V10.8203C18.75 10.6476 18.6103 10.5078 18.4375 10.5078ZM18.125 16.9864L15.8103 16.4306C14.9765 16.2307 14.092 16.2169 13.2538 16.3903L11.0959 16.8368C10.3699 16.9869 9.63503 16.9829 8.91081 16.8236L7.00134 16.4046C6.16821 16.2215 5.28811 16.2237 4.45682 16.4114L1.87503 16.9921V11.1328H18.125V16.9864Z" fill="white"/>
<path d="M3.75001 16.7578C3.5773 16.7578 3.4375 16.8976 3.4375 17.0703V19.2578C3.4375 19.4306 3.57725 19.5704 3.75001 19.5704C3.92277 19.5704 4.06253 19.4306 4.06253 19.2578V17.0703C4.06253 16.8976 3.92273 16.7578 3.75001 16.7578Z" fill="white"/>
<path d="M15.9375 16.7578C15.7648 16.7578 15.625 16.8976 15.625 17.0703V19.2578C15.625 19.4306 15.7648 19.5704 15.9375 19.5704C16.1103 19.5704 16.25 19.4306 16.25 19.2578V17.0703C16.25 16.8976 16.1102 16.7578 15.9375 16.7578Z" fill="white"/>
</svg>
