<svg width="20" height="20" viewBox="0 0 20 20" fill="none" xmlns="http://www.w3.org/2000/svg">
<path d="M14.6667 6H5.33333C5.13333 6 5 6.13333 5 6.33333V7.26667C5 7.83333 5.46667 8.33333 6.06667 8.33333H8.33333V8.66667C8.33333 9.23333 8.76667 9.66667 9.33333 9.66667H9.66667V14H8.66667C8.1 14 7.66667 14.4333 7.66667 15V15.6667C7.66667 15.8667 7.8 16 8 16H12C12.2 16 12.3333 15.8667 12.3333 15.6667V15C12.3333 14.4333 11.9 14 11.3333 14H10.3333V9.66667H10.6667C11.2333 9.66667 11.6667 9.23333 11.6667 8.66667V8.33333H13.9333C14.5 8.33333 15 7.86667 15 7.26667V6.33333C15 6.13333 14.8667 6 14.6667 6ZM11.3333 14.6667C11.5333 14.6667 11.6667 14.8 11.6667 15V15.3333H8.33333V15C8.33333 14.8 8.46667 14.6667 8.66667 14.6667H11.3333ZM11 8.66667C11 8.86667 10.8667 9 10.6667 9H9.33333C9.13333 9 9 8.86667 9 8.66667V8.33333H11V8.66667ZM14.3333 7.26667C14.3333 7.46667 14.1667 7.66667 13.9333 7.66667H6.06667C5.83333 7.66667 5.66667 7.5 5.66667 7.26667V6.66667H14.3333V7.26667Z" fill="white"/>
<path d="M4.33333 9.33333H2V5C2 4.43333 1.56667 4 1 4H0.333333C0.133333 4 0 4.13333 0 4.33333V15.6667C0 15.8667 0.133333 16 0.333333 16C0.533333 16 0.666667 15.8667 0.666667 15.6667V11.3333H4.66667V15.6667C4.66667 15.8667 4.8 16 5 16C5.2 16 5.33333 15.8667 5.33333 15.6667V10.3333C5.33333 9.76667 4.9 9.33333 4.33333 9.33333ZM0.666667 4.66667H1C1.2 4.66667 1.33333 4.8 1.33333 5V9.33333H0.666667V4.66667ZM4.66667 10.6667H0.666667V10H4.33333C4.53333 10 4.66667 10.1333 4.66667 10.3333V10.6667Z" fill="white"/>
<path d="M19.6667 4H19.0001C18.4334 4 18.0001 4.43333 18.0001 5V9.33333H15.6667C15.1001 9.33333 14.6667 9.76667 14.6667 10.3333V15.6667C14.6667 15.8667 14.8001 16 15.0001 16C15.2001 16 15.3334 15.8667 15.3334 15.6667V11.3333H19.3334V15.6667C19.3334 15.8667 19.4667 16 19.6667 16C19.8667 16 20.0001 15.8667 20.0001 15.6667V4.33333C20.0001 4.13333 19.8667 4 19.6667 4ZM19.3334 10.6667H15.3334V10.3333C15.3334 10.1333 15.4667 10 15.6667 10H19.3334V10.6667ZM19.3334 9.33333H18.6667V5C18.6667 4.8 18.8001 4.66667 19.0001 4.66667H19.3334V9.33333Z" fill="white"/>
</svg>
