<svg width="40" height="40" viewBox="0 0 40 40" fill="none" xmlns="http://www.w3.org/2000/svg">
<g clip-path="url(#clip0)">
<path d="M39.9674 18.8297C39.6915 13.9894 37.633 9.40468 34.1716 5.92031C30.7097 2.43548 26.1388 0.347667 21.3008 0.0415739C18.3596 -0.144598 15.4939 0.293292 12.7831 1.34274C10.1773 2.35141 7.84934 3.86922 5.86348 5.85391C3.87755 7.83867 2.35849 10.1658 1.3481 12.771C0.297011 15.4812 -0.142441 18.3465 0.0418557 21.2875C0.344355 26.1144 2.42162 30.6792 5.89075 34.1405C9.35957 37.6015 13.929 39.6689 18.7571 39.9619C19.1746 39.9872 19.5907 39.9999 20.0057 39.9999C22.111 39.9999 24.1798 39.6742 26.1711 39.0281C27.79 38.5029 29.0844 37.2824 29.7224 35.6796C30.343 34.1209 30.2812 32.3942 29.5612 30.8936C29.5624 30.8925 29.5636 30.8914 29.5648 30.8903L31.2708 29.1843C31.7164 28.7386 31.9246 28.1247 31.842 27.5C31.7594 26.8753 31.3987 26.3366 30.8527 26.0222L25.1044 22.7126C24.3187 22.2602 23.3223 22.392 22.681 23.0332L21.1937 24.5206C20.951 24.7633 20.5655 24.7828 20.297 24.5661C19.4233 23.8608 18.5628 23.0856 17.7392 22.2619C16.9156 21.4384 16.1404 20.5778 15.435 19.704C15.2183 19.4355 15.2378 19.0501 15.4804 18.8074L16.9679 17.3199C17.609 16.6788 17.7408 15.6823 17.2885 14.8966L13.9789 9.14835C13.6645 8.60226 13.1258 8.24164 12.501 8.15898C11.8764 8.07617 11.2625 8.28453 10.8168 8.73015L9.11074 10.4362C7.85614 11.6907 7.82106 13.9497 9.01184 16.7973C10.1336 19.4798 12.2238 22.4296 14.8976 25.1032C17.5714 27.777 20.5211 29.8672 23.2035 30.989C24.5884 31.5682 25.8339 31.8573 26.8926 31.8573C27.5218 31.8573 28.0849 31.7551 28.572 31.5509C29.0845 32.7206 29.1118 34.0452 28.6337 35.2461C28.1249 36.5239 27.0956 37.4962 25.8095 37.9134C23.5657 38.6413 21.217 38.937 18.828 38.792C14.2854 38.5164 9.9848 36.5698 6.71833 33.3108C3.45169 30.0515 1.49592 25.7555 1.21131 21.2139C1.03763 18.4435 1.45123 15.7453 2.44052 13.1944C3.39154 10.7422 4.82185 8.55132 6.69169 6.6825C8.56153 4.81375 10.7532 3.38485 13.206 2.43532C15.7574 1.44751 18.456 1.03571 21.2267 1.21079C25.7784 1.49884 30.0803 3.46461 33.3401 6.74594C36.5996 10.027 38.5376 14.342 38.7973 18.8962C38.9858 22.202 38.3105 25.4957 36.8447 28.4211C36.6997 28.7104 36.8167 29.0625 37.1061 29.2075C37.3955 29.3526 37.7474 29.2354 37.8923 28.9461C39.4499 25.838 40.1674 22.3397 39.9674 18.8297ZM28.7362 30.0617C27.853 30.9449 26.0012 30.8889 23.6558 29.908C21.1108 28.8437 18.2947 26.8432 15.7264 24.2747C13.158 21.7064 11.1575 18.8903 10.0932 16.3453C9.11231 13.9998 9.05629 12.1481 9.93949 11.265L10.689 10.5154L10.9107 10.9004C11.0191 11.0887 11.2162 11.1941 11.419 11.1941C11.5182 11.1941 11.6188 11.1688 11.7108 11.1159C11.9913 10.9544 12.0877 10.5962 11.9263 10.3157L11.5471 9.65718L11.6455 9.55882C11.8044 9.39984 12.0148 9.31343 12.2354 9.31343C12.2725 9.31343 12.3099 9.31585 12.3475 9.32085C12.6078 9.35531 12.8323 9.50554 12.9633 9.7332L16.2729 15.4815C16.4615 15.8089 16.4066 16.2242 16.1393 16.4914L15.7222 16.9085L13.2311 12.5818C13.0696 12.3013 12.7114 12.2049 12.431 12.3664C12.1505 12.5278 12.0541 12.8861 12.2155 13.1665L14.864 17.7667L14.6518 17.9789C13.9846 18.6462 13.9293 19.7043 14.5232 20.4402C15.2546 21.3462 16.0579 22.2379 16.9107 23.0906C17.7635 23.9435 18.6553 24.7468 19.561 25.4779C20.2968 26.072 21.3549 26.0167 22.0224 25.3493L22.1551 25.2166L23.1721 25.7971C23.2638 25.8493 23.3635 25.8743 23.462 25.8743C23.6656 25.8743 23.8634 25.7681 23.9715 25.5786C24.132 25.2976 24.0342 24.9397 23.7531 24.7793L23.0142 24.3576L23.5099 23.8619C23.777 23.5947 24.1924 23.54 24.5198 23.7283L30.268 27.0379C30.4957 27.1689 30.6459 27.3934 30.6804 27.6538C30.7148 27.9142 30.628 28.17 30.4423 28.3557L30.2887 28.5093L25.9277 26.0203C25.6466 25.8599 25.2887 25.9576 25.1284 26.2387C24.9679 26.5198 25.0657 26.8776 25.3468 27.038L29.4298 29.3682L28.7362 30.0617Z" fill="#00CC52"/>
</g>
<defs>
<clipPath id="clip0">
<rect width="40" height="40" fill="white"/>
</clipPath>
</defs>
</svg>
