<svg width="208" height="51" viewBox="0 0 208 51" fill="none" xmlns="http://www.w3.org/2000/svg">
<path d="M71.0675 3.8V22H66.0755V19.92C65.4861 20.7173 64.7408 21.324 63.8395 21.74C62.9381 22.156 61.9241 22.364 60.7975 22.364C58.6481 22.364 56.9755 21.6793 55.7795 20.31C54.5835 18.9233 53.9855 16.956 53.9855 14.408V3.8H59.1335V14.252C59.1335 15.5347 59.4195 16.4967 59.9915 17.138C60.5808 17.7793 61.3781 18.1 62.3835 18.1C63.4408 18.1 64.2901 17.7533 64.9315 17.06C65.5901 16.3667 65.9195 15.344 65.9195 13.992V3.8H71.0675ZM74.5519 7.908H79.4659V13.134H84.5359V7.908H89.4759V22H84.5359V17.06H79.4659V22H74.5519V7.908ZM111.164 7.674C112.897 7.674 114.275 8.194 115.298 9.234C116.338 10.274 116.858 11.8427 116.858 13.94V22H111.918V14.746C111.918 13.758 111.727 13.03 111.346 12.562C110.982 12.094 110.462 11.86 109.786 11.86C109.04 11.86 108.442 12.12 107.992 12.64C107.541 13.16 107.316 13.9487 107.316 15.006V22H102.376V14.746C102.376 12.822 101.665 11.86 100.244 11.86C99.4811 11.86 98.8744 12.12 98.4237 12.64C97.9731 13.16 97.7477 13.9487 97.7477 15.006V22H92.8077V7.908H97.5137V9.39C98.0337 8.818 98.6491 8.39333 99.3597 8.116C100.088 7.82133 100.876 7.674 101.726 7.674C102.714 7.674 103.598 7.856 104.378 8.22C105.158 8.584 105.79 9.13867 106.276 9.884C106.83 9.17333 107.532 8.62733 108.382 8.246C109.231 7.86467 110.158 7.674 111.164 7.674ZM127.311 18.464C127.987 18.464 128.567 18.3687 129.053 18.178C129.555 17.9873 130.058 17.6753 130.561 17.242L133.135 19.946C131.8 21.4713 129.807 22.234 127.155 22.234C125.508 22.234 124.061 21.922 122.813 21.298C121.565 20.674 120.594 19.8073 119.901 18.698C119.225 17.5887 118.887 16.332 118.887 14.928C118.887 13.5413 119.225 12.302 119.901 11.21C120.577 10.1007 121.504 9.234 122.683 8.61C123.879 7.986 125.213 7.674 126.687 7.674C128.056 7.674 129.304 7.96 130.431 8.532C131.575 9.08667 132.485 9.91 133.161 11.002C133.837 12.0767 134.175 13.3593 134.175 14.85L124.113 16.774C124.65 17.9007 125.716 18.464 127.311 18.464ZM126.713 11.184C125.863 11.184 125.17 11.4527 124.633 11.99C124.095 12.51 123.792 13.264 123.723 14.252L129.443 13.134C129.269 12.5447 128.94 12.0767 128.455 11.73C127.969 11.366 127.389 11.184 126.713 11.184ZM144.07 7.674C145.613 7.674 146.956 7.96867 148.1 8.558C149.244 9.14733 150.12 9.99667 150.726 11.106C151.35 12.198 151.662 13.4807 151.662 14.954C151.662 16.41 151.376 17.6927 150.804 18.802C150.232 19.894 149.426 20.7433 148.386 21.35C147.346 21.9393 146.142 22.234 144.772 22.234C143.16 22.234 141.895 21.74 140.976 20.752V27.044H136.036V15.006C136.036 13.55 136.366 12.2673 137.024 11.158C137.683 10.0487 138.619 9.19067 139.832 8.584C141.046 7.97733 142.458 7.674 144.07 7.674ZM143.836 18.308C144.72 18.308 145.431 18.0047 145.968 17.398C146.523 16.774 146.8 15.9593 146.8 14.954C146.8 13.9487 146.523 13.1427 145.968 12.536C145.431 11.912 144.72 11.6 143.836 11.6C142.952 11.6 142.242 11.912 141.704 12.536C141.167 13.1427 140.898 13.9487 140.898 14.954C140.898 15.9767 141.158 16.7913 141.678 17.398C142.216 18.0047 142.935 18.308 143.836 18.308ZM160.888 22.416C156.139 22.416 153.764 20.414 153.764 16.41V7.908H158.678V12.38C159.059 12.1373 159.571 11.938 160.212 11.782C160.871 11.626 161.616 11.548 162.448 11.548C164.216 11.548 165.603 11.99 166.608 12.874C167.631 13.7407 168.142 15.032 168.142 16.748C168.142 18.6027 167.492 20.0153 166.192 20.986C164.909 21.9393 163.141 22.416 160.888 22.416ZM160.862 19.036C161.59 19.036 162.145 18.8453 162.526 18.464C162.907 18.0653 163.098 17.528 163.098 16.852C163.098 16.1933 162.907 15.6907 162.526 15.344C162.162 14.98 161.633 14.798 160.94 14.798C160.437 14.798 159.987 14.8847 159.588 15.058C159.207 15.2313 158.903 15.4653 158.678 15.76V16.852C158.678 17.5453 158.86 18.0827 159.224 18.464C159.605 18.8453 160.151 19.036 160.862 19.036ZM177.762 18.464C178.438 18.464 179.019 18.3687 179.504 18.178C180.007 17.9873 180.509 17.6753 181.012 17.242L183.586 19.946C182.251 21.4713 180.258 22.234 177.606 22.234C175.959 22.234 174.512 21.922 173.264 21.298C172.016 20.674 171.045 19.8073 170.352 18.698C169.676 17.5887 169.338 16.332 169.338 14.928C169.338 13.5413 169.676 12.302 170.352 11.21C171.028 10.1007 171.955 9.234 173.134 8.61C174.33 7.986 175.665 7.674 177.138 7.674C178.507 7.674 179.755 7.96 180.882 8.532C182.026 9.08667 182.936 9.91 183.612 11.002C184.288 12.0767 184.626 13.3593 184.626 14.85L174.564 16.774C175.101 17.9007 176.167 18.464 177.762 18.464ZM177.164 11.184C176.315 11.184 175.621 11.4527 175.084 11.99C174.547 12.51 174.243 13.264 174.174 14.252L179.894 13.134C179.721 12.5447 179.391 12.0767 178.906 11.73C178.421 11.366 177.84 11.184 177.164 11.184ZM194.522 7.674C196.064 7.674 197.408 7.96867 198.552 8.558C199.696 9.14733 200.571 9.99667 201.178 11.106C201.802 12.198 202.114 13.4807 202.114 14.954C202.114 16.41 201.828 17.6927 201.256 18.802C200.684 19.894 199.878 20.7433 198.838 21.35C197.798 21.9393 196.593 22.234 195.224 22.234C193.612 22.234 192.346 21.74 191.428 20.752V27.044H186.488V15.006C186.488 13.55 186.817 12.2673 187.476 11.158C188.134 10.0487 189.07 9.19067 190.284 8.584C191.497 7.97733 192.91 7.674 194.522 7.674ZM194.288 18.308C195.172 18.308 195.882 18.0047 196.42 17.398C196.974 16.774 197.252 15.9593 197.252 14.954C197.252 13.9487 196.974 13.1427 196.42 12.536C195.882 11.912 195.172 11.6 194.288 11.6C193.404 11.6 192.693 11.912 192.156 12.536C191.618 13.1427 191.35 13.9487 191.35 14.954C191.35 15.9767 191.61 16.7913 192.13 17.398C192.667 18.0047 193.386 18.308 194.288 18.308ZM70.6775 47L70.6515 37.354L65.9715 45.206H63.6835L59.0035 37.562V47H54.2715V28.8H58.5095L64.9055 39.304L71.1455 28.8H75.3835L75.4355 47H70.6775ZM86.4826 43.464C87.1586 43.464 87.7393 43.3687 88.2246 43.178C88.7273 42.9873 89.23 42.6753 89.7326 42.242L92.3066 44.946C90.972 46.4713 88.9786 47.234 86.3266 47.234C84.68 47.234 83.2326 46.922 81.9846 46.298C80.7366 45.674 79.766 44.8073 79.0726 43.698C78.3966 42.5887 78.0586 41.332 78.0586 39.928C78.0586 38.5413 78.3966 37.302 79.0726 36.21C79.7486 35.1007 80.676 34.234 81.8546 33.61C83.0506 32.986 84.3853 32.674 85.8586 32.674C87.228 32.674 88.476 32.96 89.6026 33.532C90.7466 34.0867 91.6566 34.91 92.3326 36.002C93.0086 37.0767 93.3466 38.3593 93.3466 39.85L83.2846 41.774C83.822 42.9007 84.888 43.464 86.4826 43.464ZM85.8846 36.184C85.0353 36.184 84.342 36.4527 83.8046 36.99C83.2673 37.51 82.964 38.264 82.8946 39.252L88.6146 38.134C88.4413 37.5447 88.112 37.0767 87.6266 36.73C87.1413 36.366 86.5606 36.184 85.8846 36.184ZM104.412 34.156C105.782 34.156 106.969 34.4247 107.974 34.962C108.98 35.482 109.742 36.236 110.262 37.224C110.8 38.1947 111.068 39.33 111.068 40.63C111.068 41.9647 110.722 43.1433 110.028 44.166C109.352 45.1713 108.408 45.96 107.194 46.532C105.998 47.0867 104.646 47.364 103.138 47.364C100.66 47.364 98.6836 46.5927 97.2103 45.05C95.7369 43.5073 95.0003 41.1933 95.0003 38.108C95.0003 32.3187 97.5656 28.9387 102.696 27.968L109.534 26.668L110.21 30.802L104.282 31.92C102.774 32.1973 101.665 32.648 100.954 33.272C100.261 33.8787 99.8449 34.7627 99.7063 35.924C100.972 34.7453 102.54 34.156 104.412 34.156ZM103.164 43.62C104.048 43.62 104.742 43.334 105.244 42.762C105.764 42.19 106.024 41.4793 106.024 40.63C106.024 39.7287 105.764 39.0267 105.244 38.524C104.724 38.004 104.031 37.744 103.164 37.744C102.28 37.744 101.57 38.004 101.032 38.524C100.512 39.044 100.252 39.7547 100.252 40.656C100.252 41.5227 100.521 42.2333 101.058 42.788C101.596 43.3427 102.298 43.62 103.164 43.62ZM120.811 43.464C121.487 43.464 122.067 43.3687 122.553 43.178C123.055 42.9873 123.558 42.6753 124.061 42.242L126.635 44.946C125.3 46.4713 123.307 47.234 120.655 47.234C119.008 47.234 117.561 46.922 116.313 46.298C115.065 45.674 114.094 44.8073 113.401 43.698C112.725 42.5887 112.387 41.332 112.387 39.928C112.387 38.5413 112.725 37.302 113.401 36.21C114.077 35.1007 115.004 34.234 116.183 33.61C117.379 32.986 118.713 32.674 120.187 32.674C121.556 32.674 122.804 32.96 123.931 33.532C125.075 34.0867 125.985 34.91 126.661 36.002C127.337 37.0767 127.675 38.3593 127.675 39.85L117.613 41.774C118.15 42.9007 119.216 43.464 120.811 43.464ZM120.213 36.184C119.363 36.184 118.67 36.4527 118.133 36.99C117.595 37.51 117.292 38.264 117.223 39.252L122.943 38.134C122.769 37.5447 122.44 37.0767 121.955 36.73C121.469 36.366 120.889 36.184 120.213 36.184ZM144.332 32.908V47H139.392V36.834H135.83L135.726 38.992C135.656 40.8293 135.474 42.346 135.18 43.542C134.885 44.738 134.4 45.674 133.724 46.35C133.048 47.0087 132.12 47.338 130.942 47.338C130.335 47.338 129.538 47.2253 128.55 47L128.758 42.97C129.07 43.0047 129.278 43.022 129.382 43.022C129.919 43.022 130.326 42.8487 130.604 42.502C130.881 42.1553 131.072 41.696 131.176 41.124C131.28 40.5347 131.349 39.7547 131.384 38.784L131.592 32.908H144.332ZM154.489 47.416C149.74 47.416 147.365 45.414 147.365 41.41V32.908H152.279V37.38C152.661 37.1373 153.172 36.938 153.813 36.782C154.472 36.626 155.217 36.548 156.049 36.548C157.817 36.548 159.204 36.99 160.209 37.874C161.232 38.7407 161.743 40.032 161.743 41.748C161.743 43.6027 161.093 45.0153 159.793 45.986C158.511 46.9393 156.743 47.416 154.489 47.416ZM154.463 44.036C155.191 44.036 155.746 43.8453 156.127 43.464C156.509 43.0653 156.699 42.528 156.699 41.852C156.699 41.1933 156.509 40.6907 156.127 40.344C155.763 39.98 155.235 39.798 154.541 39.798C154.039 39.798 153.588 39.8847 153.189 40.058C152.808 40.2313 152.505 40.4653 152.279 40.76V41.852C152.279 42.5453 152.461 43.0827 152.825 43.464C153.207 43.8453 153.753 44.036 154.463 44.036Z" fill="white"/>
<g clip-path="url(#clip0)">
<path d="M12.1366 0C13.839 0.154671 15.4829 0.406152 17.06 0.759193C26.0394 2.76899 37.2251 9.48544 37.2251 20.877C37.2251 24.9781 35.7653 28.8514 33.0947 31.8987C32.5827 22.7932 28.8959 14.2301 22.6066 7.62818C19.4835 4.3498 15.877 1.75105 12.1366 0V0Z" fill="#FEB618"/>
<path d="M30.3772 46.1255C30.3772 46.8973 29.7546 47.5231 28.9867 47.5231C28.2187 47.5231 27.5962 46.8973 27.5962 46.1255V39.0673C28.5542 38.6966 29.4841 38.2487 30.3772 37.7253V46.1255Z" fill="white"/>
<path d="M0.141659 1.25228C0.313895 0.654742 0.858319 0.243652 1.47718 0.243652C7.89228 0.243746 15.0403 3.72683 20.598 9.56092C26.7908 16.0616 30.2628 24.6143 30.3744 33.6434C30.3744 33.6464 30.3742 33.6494 30.3742 33.6524C30.376 33.6563 30.3772 33.6589 30.3772 33.6589V34.3892C30.1708 34.5402 29.9617 34.6869 29.7492 34.8277C23.2994 39.1003 14.5272 38.3743 8.86656 32.6845C3.96905 27.7618 4.98494 20.9795 5.31959 17.1733C5.83055 11.3624 6.2718 6.34394 0.733825 2.82228C0.210813 2.48974 -0.0305775 1.84972 0.141659 1.25228V1.25228Z" fill="white"/>
</g>
<defs>
<clipPath id="clip0">
<rect width="41.8673" height="47.0919" fill="white" transform="matrix(-1 0 0 1 41.8673 0)"/>
</clipPath>
</defs>
</svg>
