<svg width="32" height="32" viewBox="0 0 32 32" fill="none" xmlns="http://www.w3.org/2000/svg">
<g clip-path="url(#clip0)">
<path d="M10.2417 14.749C9.45359 14.5221 8.66545 14.4069 7.89879 14.4069C6.71489 14.4069 5.72703 14.6775 4.96104 15.0088C5.69951 12.3053 7.4735 7.64051 11.0074 7.11518C11.3347 7.06651 11.6029 6.82987 11.6921 6.51132L12.4645 3.74876C12.5296 3.51513 12.491 3.26506 12.3578 3.06232C12.2245 2.85957 12.0104 2.7243 11.7704 2.6914C11.5095 2.65582 11.2437 2.6377 10.9802 2.6377C6.73839 2.6377 2.53754 7.06517 0.764887 13.4046C-0.275676 17.1238 -0.580796 22.7154 1.98235 26.2349C3.41664 28.2043 5.50918 29.2559 8.20189 29.361C8.21297 29.3613 8.22371 29.3616 8.23479 29.3616C11.5572 29.3616 14.5033 27.1241 15.3996 23.9208C15.935 22.0058 15.6929 19.9975 14.7175 18.2644C13.7525 16.5508 12.1631 15.3018 10.2417 14.749Z" fill="#9D9D9D"/>
<path d="M31.039 18.2648C30.0739 16.5508 28.4846 15.3018 26.5632 14.749C25.7751 14.5221 24.9869 14.4069 24.2206 14.4069C23.0367 14.4069 22.0485 14.6775 21.2825 15.0088C22.021 12.3053 23.795 7.64051 27.3292 7.11518C27.6565 7.06651 27.9243 6.82987 28.014 6.51132L28.7863 3.74876C28.8514 3.51513 28.8128 3.26506 28.6796 3.06232C28.5467 2.85957 28.3325 2.7243 28.0922 2.6914C27.8317 2.65582 27.5658 2.6377 27.302 2.6377C23.0602 2.6377 18.8593 7.06517 17.0864 13.4046C16.0461 17.1238 15.741 22.7154 18.3045 26.2356C19.7385 28.2046 21.8313 29.2566 24.5237 29.3613C24.5348 29.3617 24.5455 29.362 24.5569 29.362C27.879 29.362 30.8255 27.1244 31.7217 23.9211C32.2564 22.0061 32.0141 19.9975 31.039 18.2648Z" fill="#9D9D9D"/>
</g>
<defs>
<clipPath id="clip0">
<rect width="32" height="32" fill="white"/>
</clipPath>
</defs>
</svg>
